<svg width="330" height="150" viewBox="0 0 330 150" fill="none" xmlns="http://www.w3.org/2000/svg">
<g filter="url(#filter0_d_19_199)">
<path d="M15 15H285C301.569 15 315 28.4315 315 45V135H45C28.4315 135 15 121.569 15 105V15Z" fill="white"/>
<path d="M65.0437 83.288C63.3317 83.288 61.7797 82.92 60.3877 82.184C59.0117 81.432 57.9237 80.4 57.1237 79.088C56.3397 77.76 55.9477 76.264 55.9477 74.6C55.9477 72.936 56.3397 71.448 57.1237 70.136C57.9237 68.808 59.0117 67.776 60.3877 67.04C61.7797 66.288 63.3397 65.912 65.0677 65.912C66.5237 65.912 67.8357 66.168 69.0037 66.68C70.1877 67.192 71.1797 67.928 71.9797 68.888L69.4837 71.192C68.3477 69.88 66.9397 69.224 65.2597 69.224C64.2197 69.224 63.2917 69.456 62.4757 69.92C61.6597 70.368 61.0197 71 60.5557 71.816C60.1077 72.632 59.8837 73.56 59.8837 74.6C59.8837 75.64 60.1077 76.568 60.5557 77.384C61.0197 78.2 61.6597 78.84 62.4757 79.304C63.2917 79.752 64.2197 79.976 65.2597 79.976C66.9397 79.976 68.3477 79.312 69.4837 77.984L71.9797 80.288C71.1797 81.264 70.1877 82.008 69.0037 82.52C67.8197 83.032 66.4997 83.288 65.0437 83.288ZM82.1893 69.896C83.7893 69.896 85.0773 70.376 86.0533 71.336C87.0453 72.296 87.5413 73.72 87.5413 75.608V83H83.7973V76.184C83.7973 75.16 83.5733 74.4 83.1253 73.904C82.6773 73.392 82.0293 73.136 81.1813 73.136C80.2373 73.136 79.4853 73.432 78.9253 74.024C78.3653 74.6 78.0853 75.464 78.0853 76.616V83H74.3413V65.192H78.0853V71.432C78.5813 70.936 79.1813 70.56 79.8853 70.304C80.5893 70.032 81.3573 69.896 82.1893 69.896ZM96.143 69.896C98.143 69.896 99.679 70.376 100.751 71.336C101.823 72.28 102.359 73.712 102.359 75.632V83H98.855V81.392C98.151 82.592 96.839 83.192 94.919 83.192C93.927 83.192 93.063 83.024 92.327 82.688C91.607 82.352 91.055 81.888 90.671 81.296C90.287 80.704 90.095 80.032 90.095 79.28C90.095 78.08 90.543 77.136 91.439 76.448C92.351 75.76 93.751 75.416 95.639 75.416H98.615C98.615 74.6 98.367 73.976 97.871 73.544C97.375 73.096 96.631 72.872 95.639 72.872C94.951 72.872 94.271 72.984 93.599 73.208C92.943 73.416 92.383 73.704 91.919 74.072L90.575 71.456C91.279 70.96 92.119 70.576 93.095 70.304C94.087 70.032 95.103 69.896 96.143 69.896ZM95.855 80.672C96.495 80.672 97.063 80.528 97.559 80.24C98.055 79.936 98.407 79.496 98.615 78.92V77.6H96.047C94.511 77.6 93.743 78.104 93.743 79.112C93.743 79.592 93.927 79.976 94.295 80.264C94.679 80.536 95.199 80.672 95.855 80.672ZM118.329 70.088L112.881 83H109.017L103.593 70.088H107.457L111.033 78.872L114.729 70.088H118.329ZM132.153 76.592C132.153 76.64 132.129 76.976 132.081 77.6H122.313C122.489 78.4 122.905 79.032 123.561 79.496C124.217 79.96 125.033 80.192 126.009 80.192C126.681 80.192 127.273 80.096 127.785 79.904C128.313 79.696 128.801 79.376 129.249 78.944L131.241 81.104C130.025 82.496 128.249 83.192 125.913 83.192C124.457 83.192 123.169 82.912 122.049 82.352C120.929 81.776 120.065 80.984 119.457 79.976C118.849 78.968 118.545 77.824 118.545 76.544C118.545 75.28 118.841 74.144 119.433 73.136C120.041 72.112 120.865 71.32 121.905 70.76C122.961 70.184 124.137 69.896 125.433 69.896C126.697 69.896 127.841 70.168 128.865 70.712C129.889 71.256 130.689 72.04 131.265 73.064C131.857 74.072 132.153 75.248 132.153 76.592ZM125.457 72.728C124.609 72.728 123.897 72.968 123.321 73.448C122.745 73.928 122.393 74.584 122.265 75.416H128.625C128.497 74.6 128.145 73.952 127.569 73.472C126.993 72.976 126.289 72.728 125.457 72.728ZM134.646 70.088H138.39V83H134.646V70.088ZM136.518 68.288C135.83 68.288 135.27 68.088 134.838 67.688C134.406 67.288 134.19 66.792 134.19 66.2C134.19 65.608 134.406 65.112 134.838 64.712C135.27 64.312 135.83 64.112 136.518 64.112C137.206 64.112 137.766 64.304 138.198 64.688C138.63 65.072 138.846 65.552 138.846 66.128C138.846 66.752 138.63 67.272 138.198 67.688C137.766 68.088 137.206 68.288 136.518 68.288ZM145.441 71.792C145.889 71.168 146.489 70.696 147.241 70.376C148.009 70.056 148.889 69.896 149.881 69.896V73.352C149.465 73.32 149.185 73.304 149.041 73.304C147.969 73.304 147.129 73.608 146.521 74.216C145.913 74.808 145.609 75.704 145.609 76.904V83H141.865V70.088H145.441V71.792ZM158.134 83.192C156.774 83.192 155.55 82.912 154.462 82.352C153.39 81.776 152.55 80.984 151.942 79.976C151.334 78.968 151.03 77.824 151.03 76.544C151.03 75.264 151.334 74.12 151.942 73.112C152.55 72.104 153.39 71.32 154.462 70.76C155.55 70.184 156.774 69.896 158.134 69.896C159.494 69.896 160.71 70.184 161.782 70.76C162.854 71.32 163.694 72.104 164.302 73.112C164.91 74.12 165.214 75.264 165.214 76.544C165.214 77.824 164.91 78.968 164.302 79.976C163.694 80.984 162.854 81.776 161.782 82.352C160.71 82.912 159.494 83.192 158.134 83.192ZM158.134 80.12C159.094 80.12 159.878 79.8 160.486 79.16C161.11 78.504 161.422 77.632 161.422 76.544C161.422 75.456 161.11 74.592 160.486 73.952C159.878 73.296 159.094 72.968 158.134 72.968C157.174 72.968 156.382 73.296 155.758 73.952C155.134 74.592 154.822 75.456 154.822 76.544C154.822 77.632 155.134 78.504 155.758 79.16C156.382 79.8 157.174 80.12 158.134 80.12Z" fill="#07359B"/>
<g clip-path="url(#clip0_19_199)">
<path d="M259.066 50.7831C259.072 50.2342 258.834 49.7108 258.415 49.3544C258.278 49.2355 258.12 49.1422 257.949 49.08C257.912 49.0616 257.857 49.0433 257.811 49.025C257.724 48.9981 257.636 48.9768 257.546 48.9611C257.446 48.9427 257.345 48.9334 257.243 48.9334H254.478L248.232 48.9244C247.984 48.9721 247.758 49.1009 247.591 49.2905L227.69 69.1912C226.961 68.9675 226.217 68.7931 225.465 68.6691C224.115 68.4453 222.743 68.3899 221.38 68.5042C215.195 68.996 209.786 72.8566 207.309 78.5449C204.833 84.2335 205.694 90.8236 209.548 95.6854C209.933 96.1619 210.326 96.6103 210.739 97.0318C216.175 102.559 224.685 103.65 231.341 99.6748C237.996 95.6995 241.07 87.688 238.781 80.2817L240.759 78.3036C240.875 78.1843 240.935 78.021 240.924 77.8548L240.475 72.9824C240.464 72.8366 240.509 72.6921 240.603 72.5796C240.719 72.4317 240.902 72.3524 241.089 72.3691L243.287 72.5706L245.549 72.7812C245.715 72.7936 245.878 72.733 245.996 72.615C246.114 72.4973 246.175 72.3337 246.162 72.1675L245.75 67.7076C245.739 67.5618 245.785 67.4169 245.878 67.3044C245.992 67.1548 246.176 67.0751 246.363 67.0938L248.561 67.2954L250.823 67.506C250.99 67.5188 251.153 67.4578 251.271 67.3402C251.389 67.2221 251.45 67.0589 251.437 66.8922L251.034 62.414C251.022 62.2682 251.068 62.1229 251.163 62.0112C251.277 61.8676 251.456 61.7917 251.639 61.8096L254.267 62.0479L256.538 62.2491C256.702 62.2636 256.864 62.203 256.978 62.0846L258.828 60.1794C258.992 60.0068 259.084 59.777 259.084 59.5384L259.066 50.7831ZM221.142 93.1669C219.388 94.9067 216.559 94.9067 214.805 93.1669C214.769 93.135 214.738 93.0983 214.713 93.057C214.606 92.9585 214.511 92.8477 214.429 92.7275L214.42 92.7181C214.329 92.6103 214.25 92.4939 214.182 92.3703C214.1 92.2523 214.029 92.1265 213.971 91.9948C213.898 91.8555 213.834 91.7118 213.779 91.5644C213.733 91.4514 213.696 91.3351 213.669 91.2166C213.225 89.6566 213.66 87.9782 214.807 86.8317C215.954 85.6848 217.632 85.2492 219.192 85.6941C219.311 85.721 219.427 85.7577 219.539 85.8041C219.687 85.8587 219.831 85.923 219.97 85.9963C220.102 86.0539 220.227 86.1246 220.345 86.2069C220.469 86.2746 220.586 86.3543 220.694 86.4451L220.703 86.4541C220.823 86.5359 220.934 86.6314 221.032 86.7379C221.073 86.7631 221.11 86.7938 221.142 86.8296C222.892 88.58 222.892 91.4165 221.142 93.1669Z" fill="#E3E3E3"/>
<path d="M256.319 50.7831C256.324 50.2342 256.086 49.7108 255.668 49.3544C255.53 49.2355 255.372 49.1422 255.201 49.08C255.164 49.0616 255.11 49.0433 255.064 49.025C254.977 48.9981 254.888 48.9768 254.798 48.9611C254.698 48.9427 254.597 48.9334 254.496 48.9334H254.478L248.232 48.9244C247.984 48.9721 247.758 49.1009 247.591 49.2905L227.69 69.1912C226.961 68.9675 226.217 68.7931 225.465 68.6691L224.943 69.1912C223.783 68.8349 222.589 68.6047 221.38 68.5042C215.195 68.996 209.786 72.8566 207.309 78.5449C204.833 84.2335 205.694 90.8236 209.548 95.6854C209.933 96.1619 210.326 96.6103 210.739 97.0318C213.573 99.9168 217.357 101.677 221.39 101.986C226.46 101.562 231.065 98.8607 233.911 94.6425C236.758 90.4238 237.538 85.1426 236.033 80.2817L238.011 78.3036C238.128 78.1843 238.188 78.021 238.176 77.8548L237.728 72.9824C237.714 72.8157 237.774 72.6516 237.892 72.5331C238.01 72.4151 238.174 72.355 238.341 72.3691L240.603 72.5796L242.801 72.7812C242.967 72.7923 243.13 72.7313 243.247 72.6137C243.365 72.4961 243.426 72.3332 243.415 72.1675L243.002 67.7076C242.988 67.5409 243.048 67.3764 243.167 67.2583C243.285 67.1399 243.449 67.0798 243.616 67.0938L245.878 67.3044L248.076 67.506C248.242 67.5175 248.405 67.4561 248.522 67.3389C248.64 67.2213 248.701 67.0584 248.69 66.8922L248.287 62.414C248.272 62.2499 248.332 62.088 248.449 61.9712C248.565 61.8548 248.727 61.7956 248.891 61.8096L251.163 62.0112L253.791 62.2491C253.955 62.2636 254.116 62.203 254.231 62.0846L254.267 62.0479L256.08 60.1794C256.245 60.0068 256.336 59.777 256.337 59.5384L256.319 50.7831ZM221.142 93.1669C219.954 94.3561 218.198 94.7776 216.6 94.2567C215.052 94.7605 216.353 94.3944 215.125 93.1669C215.089 93.135 215.059 93.0983 215.033 93.057C214.927 92.9585 214.832 92.8477 214.75 92.7275L214.741 92.7181C214.65 92.6103 214.57 92.4939 214.502 92.3703C214.42 92.2523 214.349 92.1265 214.292 91.9948C214.219 91.8555 214.154 91.7118 214.1 91.5644C214.053 91.4514 214.017 91.3351 213.99 91.2166C213.541 89.6566 213.976 87.9761 215.125 86.8296C216.316 85.6392 214.933 85.2637 216.444 85.6941C216.494 85.7052 216.543 85.7206 216.59 85.7397C217.433 85.464 218.34 85.4478 219.192 85.6941C219.311 85.721 219.427 85.7577 219.539 85.8041C219.687 85.8587 219.831 85.923 219.97 85.9963C220.102 86.0539 220.227 86.1246 220.345 86.2069C220.469 86.2746 220.586 86.3543 220.694 86.4451L220.703 86.4541C220.823 86.5359 220.934 86.6314 221.032 86.7379C221.073 86.7631 221.11 86.7938 221.142 86.8296C222.892 88.58 222.892 91.4165 221.142 93.1669Z" fill="#07359B"/>
<path d="M222.718 102.963C222.389 102.963 222.06 102.954 221.73 102.936C216.669 102.672 211.967 100.236 208.834 96.2531C204.072 90.2452 203.712 81.8569 207.943 75.4637C212.174 69.0705 220.036 66.1224 227.427 68.1572L246.941 48.6435C247.255 48.3076 247.673 48.0868 248.128 48.0156C248.166 48.0105 248.222 48.0267 248.242 48.0084L257.229 48.0165C257.961 48.022 258.662 48.3119 259.184 48.8254C259.704 49.345 259.992 50.0525 259.984 50.7882L260 59.5396C260.001 60.0169 259.816 60.476 259.483 60.8186L259.482 60.8195L257.631 62.7242C257.324 63.0392 256.892 63.1995 256.454 63.1607L251.984 62.7588L252.349 66.812C252.388 67.248 252.232 67.6794 251.922 67.9888C251.612 68.2982 251.181 68.4542 250.745 68.4146L246.702 68.0446L247.071 72.0864C247.111 72.5229 246.955 72.9546 246.645 73.2645C246.335 73.5743 245.903 73.7303 245.466 73.6898L241.426 73.3207L241.833 77.7704C241.873 78.2072 241.717 78.639 241.407 78.9489L239.813 80.5429C241.28 85.8761 240.173 91.5886 236.819 95.9875C233.465 100.386 228.249 102.966 222.718 102.963ZM222.694 69.3476C215.832 69.3595 209.753 73.7742 207.618 80.2957C205.482 86.8167 207.774 93.972 213.3 98.0402C218.825 102.108 226.338 102.171 231.931 98.1949C237.524 94.2192 239.934 87.1031 237.907 80.5471C237.807 80.2228 237.894 79.8699 238.135 79.6304L239.994 77.7712L239.563 73.0624C239.523 72.626 239.679 72.1942 239.989 71.8844C240.299 71.5741 240.731 71.4181 241.167 71.4577L245.209 71.8277L244.839 67.7859C244.799 67.3495 244.956 66.9182 245.266 66.6083C245.575 66.2984 246.007 66.142 246.443 66.1821L250.486 66.5516L250.121 62.4992C250.083 62.0632 250.239 61.6323 250.548 61.3228C250.857 61.0134 251.288 60.8574 251.724 60.8962L256.44 61.3207L258.167 59.5443L258.168 59.5413L258.153 50.7818C258.158 50.5358 258.063 50.298 257.891 50.1224C257.719 49.9464 257.483 49.8475 257.237 49.8475H257.232L248.35 49.8398C248.309 49.8705 248.271 49.9038 248.235 49.9391L228.339 69.8352C228.099 70.0751 227.746 70.1625 227.422 70.0628C225.89 69.5901 224.297 69.3488 222.694 69.3476Z" fill="#1D1D1D"/>
<path d="M217.971 95.393C215.397 95.3913 213.184 93.5723 212.683 91.0478C212.183 88.5233 213.535 85.9968 215.913 85.0135C218.291 84.0298 221.033 84.863 222.461 87.0035C223.89 89.1439 223.608 91.9957 221.788 93.8148C220.776 94.8275 219.403 95.3956 217.971 95.393ZM217.971 86.4345C216.271 86.4353 214.808 87.6373 214.478 89.305C214.147 90.9728 215.04 92.6418 216.611 93.2918C218.182 93.9418 219.994 93.3911 220.938 91.9769C221.882 90.5632 221.695 88.6789 220.493 87.4774C219.824 86.8083 218.917 86.4332 217.971 86.4345Z" fill="#1D1D1D"/>
<path d="M231.439 72.6938C231.068 72.6938 230.734 72.4705 230.593 72.1283C230.451 71.786 230.529 71.3922 230.791 71.1305L245.05 56.8711C245.28 56.6342 245.621 56.5391 245.94 56.6231C246.26 56.707 246.51 56.9568 246.594 57.2765C246.677 57.5961 246.583 57.9362 246.345 58.1664L232.086 72.4253C231.914 72.5975 231.681 72.6938 231.439 72.6938Z" fill="#1D1D1D"/>
<path d="M249.01 55.2976C249.01 54.7916 248.6 54.3816 248.094 54.3816C247.589 54.3816 247.179 54.7916 247.179 55.2976C247.179 55.8035 247.589 56.2135 248.094 56.2135C248.6 56.2135 249.01 55.8035 249.01 55.2976Z" fill="#1D1D1D"/>
</g>
<path d="M15.5 15.5H285C301.292 15.5 314.5 28.7076 314.5 45V134.5H45C28.7076 134.5 15.5 121.292 15.5 105V15.5Z" stroke="black" stroke-opacity="0.1"/>
</g>
<defs>
<filter id="filter0_d_19_199" x="0" y="0" width="330" height="150" filterUnits="userSpaceOnUse" color-interpolation-filters="sRGB">
<feFlood flood-opacity="0" result="BackgroundImageFix"/>
<feColorMatrix in="SourceAlpha" type="matrix" values="0 0 0 0 0 0 0 0 0 0 0 0 0 0 0 0 0 0 127 0" result="hardAlpha"/>
<feOffset/>
<feGaussianBlur stdDeviation="7.5"/>
<feColorMatrix type="matrix" values="0 0 0 0 0 0 0 0 0 0 0 0 0 0 0 0 0 0 0.1 0"/>
<feBlend mode="normal" in2="BackgroundImageFix" result="effect1_dropShadow_19_199"/>
<feBlend mode="normal" in="SourceGraphic" in2="effect1_dropShadow_19_199" result="shape"/>
</filter>
<clipPath id="clip0_19_199">
<rect width="55" height="55" fill="white" transform="translate(205 48)"/>
</clipPath>
</defs>
</svg>
