<svg width="330" height="150" viewBox="0 0 330 150" fill="none" xmlns="http://www.w3.org/2000/svg">
<g filter="url(#filter0_d_19_598)">
<path d="M15 15H285C301.569 15 315 28.4315 315 45V135H45C28.4315 135 15 121.569 15 105V15Z" fill="white"/>
<path d="M65.1062 84.288C63.3942 84.288 61.8422 83.92 60.4502 83.184C59.0742 82.432 57.9862 81.4 57.1862 80.088C56.4022 78.76 56.0102 77.264 56.0102 75.6C56.0102 73.936 56.4022 72.448 57.1862 71.136C57.9862 69.808 59.0742 68.776 60.4502 68.04C61.8422 67.288 63.4022 66.912 65.1302 66.912C66.5862 66.912 67.8982 67.168 69.0662 67.68C70.2502 68.192 71.2422 68.928 72.0422 69.888L69.5462 72.192C68.4102 70.88 67.0022 70.224 65.3222 70.224C64.2822 70.224 63.3542 70.456 62.5382 70.92C61.7222 71.368 61.0822 72 60.6182 72.816C60.1702 73.632 59.9462 74.56 59.9462 75.6C59.9462 76.64 60.1702 77.568 60.6182 78.384C61.0822 79.2 61.7222 79.84 62.5382 80.304C63.3542 80.752 64.2822 80.976 65.3222 80.976C67.0022 80.976 68.4102 80.312 69.5462 78.984L72.0422 81.288C71.2422 82.264 70.2502 83.008 69.0662 83.52C67.8822 84.032 66.5622 84.288 65.1062 84.288ZM80.1025 84.192C78.7425 84.192 77.5185 83.912 76.4305 83.352C75.3585 82.776 74.5185 81.984 73.9105 80.976C73.3025 79.968 72.9985 78.824 72.9985 77.544C72.9985 76.264 73.3025 75.12 73.9105 74.112C74.5185 73.104 75.3585 72.32 76.4305 71.76C77.5185 71.184 78.7425 70.896 80.1025 70.896C81.4625 70.896 82.6785 71.184 83.7505 71.76C84.8225 72.32 85.6625 73.104 86.2705 74.112C86.8785 75.12 87.1825 76.264 87.1825 77.544C87.1825 78.824 86.8785 79.968 86.2705 80.976C85.6625 81.984 84.8225 82.776 83.7505 83.352C82.6785 83.912 81.4625 84.192 80.1025 84.192ZM80.1025 81.12C81.0625 81.12 81.8465 80.8 82.4545 80.16C83.0785 79.504 83.3905 78.632 83.3905 77.544C83.3905 76.456 83.0785 75.592 82.4545 74.952C81.8465 74.296 81.0625 73.968 80.1025 73.968C79.1425 73.968 78.3505 74.296 77.7265 74.952C77.1025 75.592 76.7905 76.456 76.7905 77.544C76.7905 78.632 77.1025 79.504 77.7265 80.16C78.3505 80.8 79.1425 81.12 80.1025 81.12ZM106.221 70.896C107.837 70.896 109.117 71.376 110.061 72.336C111.021 73.28 111.501 74.704 111.501 76.608V84H107.757V77.184C107.757 76.16 107.541 75.4 107.109 74.904C106.693 74.392 106.093 74.136 105.309 74.136C104.429 74.136 103.733 74.424 103.221 75C102.709 75.56 102.453 76.4 102.453 77.52V84H98.709V77.184C98.709 75.152 97.893 74.136 96.261 74.136C95.397 74.136 94.709 74.424 94.197 75C93.685 75.56 93.429 76.4 93.429 77.52V84H89.685V71.088H93.261V72.576C93.741 72.032 94.325 71.616 95.013 71.328C95.717 71.04 96.485 70.896 97.317 70.896C98.229 70.896 99.053 71.08 99.789 71.448C100.525 71.8 101.117 72.32 101.565 73.008C102.093 72.336 102.757 71.816 103.557 71.448C104.373 71.08 105.261 70.896 106.221 70.896ZM122.489 70.896C123.689 70.896 124.777 71.176 125.753 71.736C126.745 72.28 127.521 73.056 128.081 74.064C128.641 75.056 128.921 76.216 128.921 77.544C128.921 78.872 128.641 80.04 128.081 81.048C127.521 82.04 126.745 82.816 125.753 83.376C124.777 83.92 123.689 84.192 122.489 84.192C120.713 84.192 119.361 83.632 118.433 82.512V84H114.857V66.192H118.601V72.456C119.545 71.416 120.841 70.896 122.489 70.896ZM121.841 81.12C122.801 81.12 123.585 80.8 124.193 80.16C124.817 79.504 125.129 78.632 125.129 77.544C125.129 76.456 124.817 75.592 124.193 74.952C123.585 74.296 122.801 73.968 121.841 73.968C120.881 73.968 120.089 74.296 119.465 74.952C118.857 75.592 118.553 76.456 118.553 77.544C118.553 78.632 118.857 79.504 119.465 80.16C120.089 80.8 120.881 81.12 121.841 81.12ZM144.435 71.088V84H140.883V82.464C140.387 83.024 139.795 83.456 139.107 83.76C138.419 84.048 137.675 84.192 136.875 84.192C135.179 84.192 133.835 83.704 132.843 82.728C131.851 81.752 131.355 80.304 131.355 78.384V71.088H135.099V77.832C135.099 79.912 135.971 80.952 137.715 80.952C138.611 80.952 139.331 80.664 139.875 80.088C140.419 79.496 140.691 78.624 140.691 77.472V71.088H144.435ZM152.248 84.192C151.176 84.192 150.128 84.064 149.104 83.808C148.08 83.536 147.264 83.2 146.656 82.8L147.904 80.112C148.48 80.48 149.176 80.784 149.992 81.024C150.808 81.248 151.608 81.36 152.392 81.36C153.976 81.36 154.768 80.968 154.768 80.184C154.768 79.816 154.552 79.552 154.12 79.392C153.688 79.232 153.024 79.096 152.128 78.984C151.072 78.824 150.2 78.64 149.512 78.432C148.824 78.224 148.224 77.856 147.712 77.328C147.216 76.8 146.968 76.048 146.968 75.072C146.968 74.256 147.2 73.536 147.664 72.912C148.144 72.272 148.832 71.776 149.728 71.424C150.64 71.072 151.712 70.896 152.944 70.896C153.856 70.896 154.76 71 155.656 71.208C156.568 71.4 157.32 71.672 157.912 72.024L156.664 74.688C155.528 74.048 154.288 73.728 152.944 73.728C152.144 73.728 151.544 73.84 151.144 74.064C150.744 74.288 150.544 74.576 150.544 74.928C150.544 75.328 150.76 75.608 151.192 75.768C151.624 75.928 152.312 76.08 153.256 76.224C154.312 76.4 155.176 76.592 155.848 76.8C156.52 76.992 157.104 77.352 157.6 77.88C158.096 78.408 158.344 79.144 158.344 80.088C158.344 80.888 158.104 81.6 157.624 82.224C157.144 82.848 156.44 83.336 155.512 83.688C154.6 84.024 153.512 84.192 152.248 84.192ZM168.982 83.376C168.614 83.648 168.158 83.856 167.614 84C167.086 84.128 166.526 84.192 165.934 84.192C164.398 84.192 163.206 83.8 162.358 83.016C161.526 82.232 161.11 81.08 161.11 79.56V74.256H159.118V71.376H161.11V68.232H164.854V71.376H168.07V74.256H164.854V79.512C164.854 80.056 164.99 80.48 165.262 80.784C165.55 81.072 165.95 81.216 166.462 81.216C167.054 81.216 167.558 81.056 167.974 80.736L168.982 83.376ZM171.083 71.088H174.827V84H171.083V71.088ZM174.011 65.976H178.043L173.699 69.432H170.771L174.011 65.976ZM191.118 71.088L185.67 84H181.806L176.382 71.088H180.246L183.822 79.872L187.518 71.088H191.118ZM204.942 77.592C204.942 77.64 204.918 77.976 204.87 78.6H195.102C195.278 79.4 195.694 80.032 196.35 80.496C197.006 80.96 197.822 81.192 198.798 81.192C199.47 81.192 200.062 81.096 200.574 80.904C201.102 80.696 201.59 80.376 202.038 79.944L204.03 82.104C202.814 83.496 201.038 84.192 198.702 84.192C197.246 84.192 195.958 83.912 194.838 83.352C193.718 82.776 192.854 81.984 192.246 80.976C191.638 79.968 191.334 78.824 191.334 77.544C191.334 76.28 191.63 75.144 192.222 74.136C192.83 73.112 193.654 72.32 194.694 71.76C195.75 71.184 196.926 70.896 198.222 70.896C199.486 70.896 200.63 71.168 201.654 71.712C202.678 72.256 203.478 73.04 204.054 74.064C204.646 75.072 204.942 76.248 204.942 77.592ZM198.246 73.728C197.398 73.728 196.686 73.968 196.11 74.448C195.534 74.928 195.182 75.584 195.054 76.416H201.414C201.286 75.6 200.934 74.952 200.358 74.472C199.782 73.976 199.078 73.728 198.246 73.728ZM207.435 66.192H211.179V84H207.435V66.192Z" fill="#07359B"/>
<g clip-path="url(#clip0_19_598)">
<path d="M231.202 100.682V56.7339C231.202 52.6706 233.661 50.2112 237.725 50.2112H255.154C259.218 50.2112 261.677 52.6706 261.677 56.7339V100.789H231.202V100.682Z" fill="#07359B"/>
<path d="M255.154 50.2112H250.449C254.513 50.2112 256.972 52.6706 256.972 56.7339V100.789H261.677V56.7339C261.677 52.5636 259.218 50.2112 255.154 50.2112Z" fill="#C3C3C3"/>
<path d="M265.206 70.4209V64.8605L272.477 61.118V70.4209H265.206Z" fill="#C3C3C3"/>
<path d="M269.59 62.615V70.4209H272.477V61.118L269.59 62.615Z" fill="#07359B"/>
<path d="M238.259 55.9854H254.62C255.368 55.9854 255.903 56.52 255.903 57.2685V66.2506C255.903 66.9991 255.368 67.5338 254.62 67.5338H238.259C237.511 67.5338 236.976 66.9991 236.976 66.2506V57.2685C236.976 56.52 237.511 55.9854 238.259 55.9854Z" fill="white"/>
<path d="M254.62 55.9854H250.128C250.77 55.9854 251.412 56.52 251.412 57.2685V66.2506C251.412 66.9991 250.877 67.5338 250.128 67.5338H254.62C255.368 67.5338 255.903 66.9991 255.903 66.2506V57.2685C255.903 56.52 255.368 55.9854 254.62 55.9854Z" fill="white"/>
<path d="M274.081 77.6921C272.263 76.7298 270.766 75.9813 270.124 71.4902H272.477C273.118 71.4902 273.546 71.0625 273.546 70.4209V60.1556C273.439 56.3062 268.413 52.3498 267.879 51.922C267.451 51.6013 266.703 51.7082 266.382 52.1359C266.061 52.5636 266.168 53.3121 266.596 53.6329C267.879 54.5953 271.408 57.8032 271.408 60.1556V60.4764L264.778 64.0051C264.457 64.219 264.243 64.5398 264.243 64.9675V70.5278C264.243 71.1694 264.671 71.5971 265.313 71.5971H267.986C268.734 77.3713 270.98 78.5476 273.118 79.6169C274.829 80.4723 276.433 81.3277 277.609 85.2841C278.572 88.8128 277.396 90.7376 276.219 91.6999C274.402 93.197 271.835 93.5177 269.697 92.6623C267.986 91.9138 266.81 90.2029 266.916 88.3851C266.703 81.007 264.243 78.8684 262.853 78.2268V56.7339C262.853 51.1735 258.897 49.1419 255.261 49.1419H237.725C234.089 49.1419 230.133 51.1735 230.133 56.7339V99.7197H226.069C225.428 99.7197 225 100.147 225 100.789C225 101.431 225.428 101.858 226.069 101.858H266.916C267.558 101.858 267.986 101.431 267.986 100.789C267.986 100.147 267.558 99.7197 266.916 99.7197H262.746V80.9C263.602 81.8624 264.564 83.8941 264.671 88.3851C264.671 91.0584 266.275 93.5177 268.734 94.4801C269.804 94.9078 270.873 95.1217 272.049 95.1217C274.081 95.1217 276.005 94.4801 277.503 93.197C278.893 92.0207 280.924 89.3475 279.534 84.5356C278.144 79.7238 275.899 78.6545 274.081 77.6921ZM266.275 69.3516V65.5021L271.301 62.8289V69.3516H266.275ZM260.608 99.6127H232.271V56.7339C232.271 52.029 235.693 51.2805 237.725 51.2805H255.154C257.186 51.2805 260.608 52.029 260.608 56.7339V99.6127Z" fill="#1D1D1D"/>
<path d="M254.62 54.9161H238.259C236.976 54.9161 235.907 55.9854 235.907 57.2685V66.2506C235.907 67.5338 236.976 68.6031 238.259 68.6031H254.62C255.903 68.6031 256.972 67.5338 256.972 66.2506V57.2685C256.972 55.9854 255.903 54.9161 254.62 54.9161ZM254.833 66.2506C254.833 66.3576 254.726 66.4645 254.62 66.4645H238.259C238.152 66.4645 238.045 66.3576 238.045 66.2506V57.2685C238.045 57.1616 238.152 57.0547 238.259 57.0547H254.62C254.726 57.0547 254.833 57.1616 254.833 57.2685V66.2506Z" fill="#1D1D1D"/>
</g>
<path d="M15.5 15.5H285C301.292 15.5 314.5 28.7076 314.5 45V134.5H45C28.7076 134.5 15.5 121.292 15.5 105V15.5Z" stroke="black" stroke-opacity="0.1"/>
</g>
<defs>
<filter id="filter0_d_19_598" x="0" y="0" width="330" height="150" filterUnits="userSpaceOnUse" color-interpolation-filters="sRGB">
<feFlood flood-opacity="0" result="BackgroundImageFix"/>
<feColorMatrix in="SourceAlpha" type="matrix" values="0 0 0 0 0 0 0 0 0 0 0 0 0 0 0 0 0 0 127 0" result="hardAlpha"/>
<feOffset/>
<feGaussianBlur stdDeviation="7.5"/>
<feColorMatrix type="matrix" values="0 0 0 0 0 0 0 0 0 0 0 0 0 0 0 0 0 0 0.1 0"/>
<feBlend mode="normal" in2="BackgroundImageFix" result="effect1_dropShadow_19_598"/>
<feBlend mode="normal" in="SourceGraphic" in2="effect1_dropShadow_19_598" result="shape"/>
</filter>
<clipPath id="clip0_19_598">
<rect width="55" height="55" fill="white" transform="translate(225 48)"/>
</clipPath>
</defs>
</svg>
