<svg width="330" height="150" viewBox="0 0 330 150" fill="none" xmlns="http://www.w3.org/2000/svg">
<g filter="url(#filter0_d_19_697)">
<path d="M15 15H285C301.569 15 315 28.4315 315 45V135H45C28.4315 135 15 121.569 15 105V15Z" fill="white"/>
<path d="M79.9343 69L76.6943 64.32H76.5023H73.1183V69H69.2303V52.2H76.5023C77.9903 52.2 79.2783 52.448 80.3663 52.944C81.4703 53.44 82.3183 54.144 82.9103 55.056C83.5023 55.968 83.7983 57.048 83.7983 58.296C83.7983 59.544 83.4943 60.624 82.8863 61.536C82.2943 62.432 81.4463 63.12 80.3423 63.6L84.1103 69H79.9343ZM79.8623 58.296C79.8623 57.352 79.5583 56.632 78.9503 56.136C78.3423 55.624 77.4543 55.368 76.2863 55.368H73.1183V61.224H76.2863C77.4543 61.224 78.3423 60.968 78.9503 60.456C79.5583 59.944 79.8623 59.224 79.8623 58.296ZM99.2627 62.592C99.2627 62.64 99.2387 62.976 99.1907 63.6H89.4227C89.5987 64.4 90.0147 65.032 90.6707 65.496C91.3267 65.96 92.1427 66.192 93.1187 66.192C93.7907 66.192 94.3827 66.096 94.8947 65.904C95.4227 65.696 95.9107 65.376 96.3587 64.944L98.3507 67.104C97.1347 68.496 95.3587 69.192 93.0227 69.192C91.5667 69.192 90.2787 68.912 89.1587 68.352C88.0387 67.776 87.1747 66.984 86.5667 65.976C85.9587 64.968 85.6547 63.824 85.6547 62.544C85.6547 61.28 85.9507 60.144 86.5427 59.136C87.1507 58.112 87.9747 57.32 89.0147 56.76C90.0707 56.184 91.2467 55.896 92.5427 55.896C93.8067 55.896 94.9507 56.168 95.9747 56.712C96.9987 57.256 97.7987 58.04 98.3747 59.064C98.9667 60.072 99.2627 61.248 99.2627 62.592ZM92.5667 58.728C91.7187 58.728 91.0067 58.968 90.4307 59.448C89.8547 59.928 89.5027 60.584 89.3747 61.416H95.7347C95.6067 60.6 95.2547 59.952 94.6787 59.472C94.1027 58.976 93.3987 58.728 92.5667 58.728ZM107.995 69.192C106.619 69.192 105.379 68.912 104.275 68.352C103.187 67.776 102.331 66.984 101.707 65.976C101.099 64.968 100.795 63.824 100.795 62.544C100.795 61.264 101.099 60.12 101.707 59.112C102.331 58.104 103.187 57.32 104.275 56.76C105.379 56.184 106.619 55.896 107.995 55.896C109.355 55.896 110.539 56.184 111.547 56.76C112.571 57.32 113.315 58.128 113.779 59.184L110.875 60.744C110.203 59.56 109.235 58.968 107.971 58.968C106.995 58.968 106.187 59.288 105.547 59.928C104.907 60.568 104.587 61.44 104.587 62.544C104.587 63.648 104.907 64.52 105.547 65.16C106.187 65.8 106.995 66.12 107.971 66.12C109.251 66.12 110.219 65.528 110.875 64.344L113.779 65.928C113.315 66.952 112.571 67.752 111.547 68.328C110.539 68.904 109.355 69.192 107.995 69.192ZM121.143 55.896C123.143 55.896 124.679 56.376 125.751 57.336C126.823 58.28 127.359 59.712 127.359 61.632V69H123.855V67.392C123.151 68.592 121.839 69.192 119.919 69.192C118.927 69.192 118.063 69.024 117.327 68.688C116.607 68.352 116.055 67.888 115.671 67.296C115.287 66.704 115.095 66.032 115.095 65.28C115.095 64.08 115.543 63.136 116.439 62.448C117.351 61.76 118.751 61.416 120.639 61.416H123.615C123.615 60.6 123.367 59.976 122.871 59.544C122.375 59.096 121.631 58.872 120.639 58.872C119.951 58.872 119.271 58.984 118.599 59.208C117.943 59.416 117.383 59.704 116.919 60.072L115.575 57.456C116.279 56.96 117.119 56.576 118.095 56.304C119.087 56.032 120.103 55.896 121.143 55.896ZM120.855 66.672C121.495 66.672 122.063 66.528 122.559 66.24C123.055 65.936 123.407 65.496 123.615 64.92V63.6H121.047C119.511 63.6 118.743 64.104 118.743 65.112C118.743 65.592 118.927 65.976 119.295 66.264C119.679 66.536 120.199 66.672 120.855 66.672ZM134.324 57.792C134.772 57.168 135.372 56.696 136.124 56.376C136.892 56.056 137.772 55.896 138.764 55.896V59.352C138.348 59.32 138.068 59.304 137.924 59.304C136.852 59.304 136.012 59.608 135.404 60.216C134.796 60.808 134.492 61.704 134.492 62.904V69H130.748V56.088H134.324V57.792ZM154.193 56.088V66.84C154.193 69.208 153.577 70.968 152.345 72.12C151.113 73.272 149.313 73.848 146.945 73.848C145.697 73.848 144.513 73.696 143.393 73.392C142.273 73.088 141.345 72.648 140.609 72.072L142.097 69.384C142.641 69.832 143.329 70.184 144.161 70.44C144.993 70.712 145.825 70.848 146.657 70.848C147.953 70.848 148.905 70.552 149.513 69.96C150.137 69.384 150.449 68.504 150.449 67.32V66.768C149.473 67.84 148.113 68.376 146.369 68.376C145.185 68.376 144.097 68.12 143.105 67.608C142.129 67.08 141.353 66.344 140.777 65.4C140.201 64.456 139.913 63.368 139.913 62.136C139.913 60.904 140.201 59.816 140.777 58.872C141.353 57.928 142.129 57.2 143.105 56.688C144.097 56.16 145.185 55.896 146.369 55.896C148.241 55.896 149.665 56.512 150.641 57.744V56.088H154.193ZM147.113 65.304C148.105 65.304 148.913 65.016 149.537 64.44C150.177 63.848 150.497 63.08 150.497 62.136C150.497 61.192 150.177 60.432 149.537 59.856C148.913 59.264 148.105 58.968 147.113 58.968C146.121 58.968 145.305 59.264 144.665 59.856C144.025 60.432 143.705 61.192 143.705 62.136C143.705 63.08 144.025 63.848 144.665 64.44C145.305 65.016 146.121 65.304 147.113 65.304ZM162.885 55.896C164.885 55.896 166.421 56.376 167.493 57.336C168.565 58.28 169.101 59.712 169.101 61.632V69H165.597V67.392C164.893 68.592 163.581 69.192 161.661 69.192C160.669 69.192 159.805 69.024 159.069 68.688C158.349 68.352 157.797 67.888 157.413 67.296C157.029 66.704 156.837 66.032 156.837 65.28C156.837 64.08 157.285 63.136 158.181 62.448C159.093 61.76 160.493 61.416 162.381 61.416H165.357C165.357 60.6 165.109 59.976 164.613 59.544C164.117 59.096 163.373 58.872 162.381 58.872C161.693 58.872 161.013 58.984 160.341 59.208C159.685 59.416 159.125 59.704 158.661 60.072L157.317 57.456C158.021 56.96 158.861 56.576 159.837 56.304C160.829 56.032 161.845 55.896 162.885 55.896ZM162.597 66.672C163.237 66.672 163.805 66.528 164.301 66.24C164.797 65.936 165.149 65.496 165.357 64.92V63.6H162.789C161.253 63.6 160.485 64.104 160.485 65.112C160.485 65.592 160.669 65.976 161.037 66.264C161.421 66.536 161.941 66.672 162.597 66.672ZM70.2941 80.192V98H66.7181V96.512C65.7901 97.632 64.4461 98.192 62.6861 98.192C61.4701 98.192 60.3661 97.92 59.3741 97.376C58.3981 96.832 57.6301 96.056 57.0701 95.048C56.5101 94.04 56.2301 92.872 56.2301 91.544C56.2301 90.216 56.5101 89.048 57.0701 88.04C57.6301 87.032 58.3981 86.256 59.3741 85.712C60.3661 85.168 61.4701 84.896 62.6861 84.896C64.3341 84.896 65.6221 85.416 66.5501 86.456V80.192H70.2941ZM63.3341 95.12C64.2781 95.12 65.0621 94.8 65.6861 94.16C66.3101 93.504 66.6221 92.632 66.6221 91.544C66.6221 90.456 66.3101 89.592 65.6861 88.952C65.0621 88.296 64.2781 87.968 63.3341 87.968C62.3741 87.968 61.5821 88.296 60.9581 88.952C60.3341 89.592 60.0221 90.456 60.0221 91.544C60.0221 92.632 60.3341 93.504 60.9581 94.16C61.5821 94.8 62.3741 95.12 63.3341 95.12ZM86.4073 91.592C86.4073 91.64 86.3833 91.976 86.3353 92.6H76.5673C76.7433 93.4 77.1593 94.032 77.8153 94.496C78.4713 94.96 79.2873 95.192 80.2633 95.192C80.9353 95.192 81.5273 95.096 82.0393 94.904C82.5673 94.696 83.0553 94.376 83.5033 93.944L85.4953 96.104C84.2793 97.496 82.5033 98.192 80.1673 98.192C78.7113 98.192 77.4233 97.912 76.3033 97.352C75.1833 96.776 74.3193 95.984 73.7113 94.976C73.1033 93.968 72.7993 92.824 72.7993 91.544C72.7993 90.28 73.0953 89.144 73.6873 88.136C74.2953 87.112 75.1193 86.32 76.1593 85.76C77.2153 85.184 78.3913 84.896 79.6873 84.896C80.9513 84.896 82.0953 85.168 83.1193 85.712C84.1433 86.256 84.9433 87.04 85.5193 88.064C86.1113 89.072 86.4073 90.248 86.4073 91.592ZM79.7113 87.728C78.8633 87.728 78.1513 87.968 77.5753 88.448C76.9993 88.928 76.6473 89.584 76.5193 90.416H82.8793C82.7513 89.6 82.3993 88.952 81.8233 88.472C81.2473 87.976 80.5433 87.728 79.7113 87.728ZM103.329 84.896C104.529 84.896 105.617 85.176 106.593 85.736C107.585 86.28 108.361 87.056 108.921 88.064C109.481 89.056 109.761 90.216 109.761 91.544C109.761 92.872 109.481 94.04 108.921 95.048C108.361 96.04 107.585 96.816 106.593 97.376C105.617 97.92 104.529 98.192 103.329 98.192C101.553 98.192 100.201 97.632 99.2728 96.512V98H95.6968V80.192H99.4408V86.456C100.385 85.416 101.681 84.896 103.329 84.896ZM102.681 95.12C103.641 95.12 104.425 94.8 105.033 94.16C105.657 93.504 105.969 92.632 105.969 91.544C105.969 90.456 105.657 89.592 105.033 88.952C104.425 88.296 103.641 87.968 102.681 87.968C101.721 87.968 100.929 88.296 100.305 88.952C99.6968 89.592 99.3928 90.456 99.3928 91.544C99.3928 92.632 99.6968 93.504 100.305 94.16C100.929 94.8 101.721 95.12 102.681 95.12ZM117.264 84.896C119.264 84.896 120.8 85.376 121.872 86.336C122.944 87.28 123.48 88.712 123.48 90.632V98H119.976V96.392C119.272 97.592 117.96 98.192 116.04 98.192C115.048 98.192 114.184 98.024 113.448 97.688C112.728 97.352 112.176 96.888 111.792 96.296C111.408 95.704 111.216 95.032 111.216 94.28C111.216 93.08 111.664 92.136 112.56 91.448C113.472 90.76 114.872 90.416 116.76 90.416H119.736C119.736 89.6 119.488 88.976 118.992 88.544C118.496 88.096 117.752 87.872 116.76 87.872C116.072 87.872 115.392 87.984 114.72 88.208C114.064 88.416 113.504 88.704 113.04 89.072L111.696 86.456C112.4 85.96 113.24 85.576 114.216 85.304C115.208 85.032 116.224 84.896 117.264 84.896ZM116.976 95.672C117.616 95.672 118.184 95.528 118.68 95.24C119.176 94.936 119.528 94.496 119.736 93.92V92.6H117.168C115.632 92.6 114.864 93.104 114.864 94.112C114.864 94.592 115.048 94.976 115.416 95.264C115.8 95.536 116.32 95.672 116.976 95.672ZM135.197 97.376C134.829 97.648 134.373 97.856 133.829 98C133.301 98.128 132.741 98.192 132.149 98.192C130.613 98.192 129.421 97.8 128.573 97.016C127.741 96.232 127.325 95.08 127.325 93.56V88.256H125.333V85.376H127.325V82.232H131.069V85.376H134.285V88.256H131.069V93.512C131.069 94.056 131.205 94.48 131.477 94.784C131.765 95.072 132.165 95.216 132.677 95.216C133.269 95.216 133.773 95.056 134.189 94.736L135.197 97.376ZM149.548 91.592C149.548 91.64 149.524 91.976 149.476 92.6H139.708C139.884 93.4 140.3 94.032 140.956 94.496C141.612 94.96 142.428 95.192 143.404 95.192C144.076 95.192 144.668 95.096 145.18 94.904C145.708 94.696 146.196 94.376 146.644 93.944L148.636 96.104C147.42 97.496 145.644 98.192 143.308 98.192C141.852 98.192 140.564 97.912 139.444 97.352C138.324 96.776 137.46 95.984 136.852 94.976C136.244 93.968 135.94 92.824 135.94 91.544C135.94 90.28 136.236 89.144 136.828 88.136C137.436 87.112 138.26 86.32 139.3 85.76C140.356 85.184 141.532 84.896 142.828 84.896C144.092 84.896 145.236 85.168 146.26 85.712C147.284 86.256 148.084 87.04 148.66 88.064C149.252 89.072 149.548 90.248 149.548 91.592ZM142.852 87.728C142.004 87.728 141.292 87.968 140.716 88.448C140.14 88.928 139.788 89.584 139.66 90.416H146.02C145.892 89.6 145.54 88.952 144.964 88.472C144.388 87.976 143.684 87.728 142.852 87.728ZM155.617 86.792C156.065 86.168 156.665 85.696 157.417 85.376C158.185 85.056 159.065 84.896 160.057 84.896V88.352C159.641 88.32 159.361 88.304 159.217 88.304C158.145 88.304 157.305 88.608 156.697 89.216C156.089 89.808 155.785 90.704 155.785 91.904V98H152.041V85.088H155.617V86.792ZM162.283 85.088H166.027V98H162.283V85.088ZM164.155 83.288C163.467 83.288 162.907 83.088 162.475 82.688C162.043 82.288 161.827 81.792 161.827 81.2C161.827 80.608 162.043 80.112 162.475 79.712C162.907 79.312 163.467 79.112 164.155 79.112C164.843 79.112 165.403 79.304 165.835 79.688C166.267 80.072 166.483 80.552 166.483 81.128C166.483 81.752 166.267 82.272 165.835 82.688C165.403 83.088 164.843 83.288 164.155 83.288ZM174.709 84.896C176.709 84.896 178.245 85.376 179.317 86.336C180.389 87.28 180.925 88.712 180.925 90.632V98H177.421V96.392C176.717 97.592 175.405 98.192 173.485 98.192C172.493 98.192 171.629 98.024 170.893 97.688C170.173 97.352 169.621 96.888 169.237 96.296C168.853 95.704 168.661 95.032 168.661 94.28C168.661 93.08 169.109 92.136 170.005 91.448C170.917 90.76 172.317 90.416 174.205 90.416H177.181C177.181 89.6 176.933 88.976 176.437 88.544C175.941 88.096 175.197 87.872 174.205 87.872C173.517 87.872 172.837 87.984 172.165 88.208C171.509 88.416 170.949 88.704 170.485 89.072L169.141 86.456C169.845 85.96 170.685 85.576 171.661 85.304C172.653 85.032 173.669 84.896 174.709 84.896ZM174.421 95.672C175.061 95.672 175.629 95.528 176.125 95.24C176.621 94.936 176.973 94.496 177.181 93.92V92.6H174.613C173.077 92.6 172.309 93.104 172.309 94.112C172.309 94.592 172.493 94.976 172.861 95.264C173.245 95.536 173.765 95.672 174.421 95.672Z" fill="#07359B"/>
<g clip-path="url(#clip0_19_697)">
<path d="M245.938 52.1562L242.5 56.4531H249.375L237.344 65.9062L240.781 59.8906H235.625L241.641 52.1562H245.938Z" fill="#DBDB53"/>
<path d="M256.25 65.9062V62.4688H263.125V65.9062" fill="#1D1D1D"/>
<path d="M256.25 62.4688H260.547V65.9062H256.25V62.4688Z" fill="#1D1D1D"/>
<path d="M221.875 65.9062V62.4688H228.75V65.9062" fill="#1D1D1D"/>
<path d="M221.875 62.4688H226.172V65.9062H221.875V62.4688Z" fill="#1D1D1D"/>
<path d="M254.531 69.3438V65.9062H264.844V69.3438" fill="#1D1D1D"/>
<path d="M254.531 65.9062H262.266V69.3438H254.531V65.9062Z" fill="#F5F5F5"/>
<path d="M220.156 69.3438V65.9062H230.469V69.3438" fill="#1D1D1D"/>
<path d="M220.156 65.9062H227.891V69.3438H220.156V65.9062Z" fill="#F5F5F5"/>
<path d="M218.438 74.5H266.562V95.125H218.438V74.5Z" fill="#1D1D1D"/>
<path d="M218.438 74.5H263.984V95.125H218.438V74.5Z" fill="#F5F5F5"/>
<path d="M249.375 83.0938H259.688V86.5312H249.375V83.0938Z" fill="#07359B"/>
<path d="M235.625 83.0938H232.188V79.6562H228.75V83.0938H225.312V86.5312H228.75V89.9688H232.188V86.5312H235.625V83.0938Z" fill="#07359B"/>
<path d="M216.719 95.125H268.281V100.281H216.719V95.125Z" fill="#07359B"/>
<path d="M216.719 95.125H265.703V100.281H216.719V95.125Z" fill="#07359B"/>
<path d="M216.719 69.3438H268.281V74.5H216.719V69.3438Z" fill="#07359B"/>
<path d="M216.719 69.3438H265.703V74.5H216.719V69.3438Z" fill="#07359B"/>
<path d="M268.281 101.141H216.719C216.244 101.141 215.859 100.756 215.859 100.281V95.125C215.859 94.6498 216.244 94.2656 216.719 94.2656H268.281C268.756 94.2656 269.141 94.6498 269.141 95.125V100.281C269.141 100.756 268.756 101.141 268.281 101.141ZM217.578 99.4219H267.422V95.9844H217.578V99.4219Z" fill="#1D1D1D"/>
<path d="M268.281 75.3594H216.719C216.244 75.3594 215.859 74.9744 215.859 74.5V69.3438C215.859 68.8694 216.244 68.4844 216.719 68.4844H268.281C268.756 68.4844 269.141 68.8694 269.141 69.3438V74.5C269.141 74.9744 268.756 75.3594 268.281 75.3594ZM217.578 73.6406H267.422V70.2031H217.578V73.6406Z" fill="#1D1D1D"/>
<path d="M231.328 69.3438H229.609V66.7656H221.016V69.3438H219.297V65.9062C219.297 65.4319 219.681 65.0469 220.156 65.0469H230.469C230.944 65.0469 231.328 65.4319 231.328 65.9062V69.3438Z" fill="#1D1D1D"/>
<path d="M265.703 69.3438H263.984V66.7656H255.391V69.3438H253.672V65.9062C253.672 65.4319 254.056 65.0469 254.531 65.0469H264.844C265.319 65.0469 265.703 65.4319 265.703 65.9062V69.3438Z" fill="#1D1D1D"/>
<path d="M232.188 90.8281H228.75C228.275 90.8281 227.891 90.444 227.891 89.9688V87.3906H225.312C224.837 87.3906 224.453 87.0065 224.453 86.5312V83.0938C224.453 82.6185 224.837 82.2344 225.312 82.2344H227.891V79.6562C227.891 79.181 228.275 78.7969 228.75 78.7969H232.188C232.663 78.7969 233.047 79.181 233.047 79.6562V82.2344H235.625C236.1 82.2344 236.484 82.6185 236.484 83.0938V86.5312C236.484 87.0065 236.1 87.3906 235.625 87.3906H233.047V89.9688C233.047 90.444 232.663 90.8281 232.188 90.8281ZM229.609 89.1094H231.328V86.5312C231.328 86.056 231.712 85.6719 232.188 85.6719H234.766V83.9531H232.188C231.712 83.9531 231.328 83.569 231.328 83.0938V80.5156H229.609V83.0938C229.609 83.569 229.225 83.9531 228.75 83.9531H226.172V85.6719H228.75C229.225 85.6719 229.609 86.056 229.609 86.5312V89.1094Z" fill="#1D1D1D"/>
<path d="M259.688 87.3906H249.375C248.9 87.3906 248.516 87.0065 248.516 86.5312V83.0938C248.516 82.6185 248.9 82.2344 249.375 82.2344H259.688C260.163 82.2344 260.547 82.6185 260.547 83.0938V86.5312C260.547 87.0065 260.163 87.3906 259.688 87.3906ZM250.234 85.6719H258.828V83.9531H250.234V85.6719Z" fill="#1D1D1D"/>
<path d="M241.641 74.5H243.359V95.125H241.641V74.5Z" fill="#1D1D1D"/>
<path d="M229.609 65.9062H227.891V63.3281H222.734V65.9062H221.016V62.4688C221.016 61.9944 221.4 61.6094 221.875 61.6094H228.75C229.225 61.6094 229.609 61.9944 229.609 62.4688V65.9062Z" fill="#1D1D1D"/>
<path d="M263.984 65.9062H262.266V63.3281H257.109V65.9062H255.391V62.4688C255.391 61.9944 255.775 61.6094 256.25 61.6094H263.125C263.6 61.6094 263.984 61.9944 263.984 62.4688V65.9062Z" fill="#1D1D1D"/>
<path d="M260.547 62.4688H258.828V52.1562C258.828 50.7348 257.671 49.5781 256.25 49.5781H228.75C227.329 49.5781 226.172 50.7348 226.172 52.1562V62.4688H224.453V52.1562C224.453 49.787 226.381 47.8594 228.75 47.8594H256.25C258.619 47.8594 260.547 49.787 260.547 52.1562V62.4688Z" fill="#1D1D1D"/>
<path d="M237.344 66.7656C237.144 66.7656 236.943 66.6952 236.783 66.5568C236.471 66.2887 236.394 65.8375 236.598 65.48L239.3 60.75H235.625C235.297 60.75 234.998 60.5627 234.853 60.2679C234.709 59.9731 234.746 59.6216 234.947 59.363L240.963 51.6286C241.125 51.4198 241.375 51.2969 241.641 51.2969H245.938C246.268 51.2969 246.568 51.4859 246.712 51.7841C246.854 52.0815 246.815 52.4355 246.609 52.6934L244.288 55.5938H249.375C249.742 55.5938 250.068 55.8258 250.187 56.1721C250.307 56.5184 250.194 56.9026 249.906 57.1286L237.875 66.5817C237.719 66.7046 237.531 66.7656 237.344 66.7656ZM237.382 59.0312H240.781C241.087 59.0312 241.371 59.1945 241.525 59.4592C241.678 59.7239 241.679 60.0505 241.527 60.3169L240.273 62.5117L246.89 57.3125H242.5C242.169 57.3125 241.869 57.1234 241.726 56.8252C241.583 56.5279 241.623 56.1738 241.829 55.916L244.149 53.0156H242.061L237.382 59.0312Z" fill="#1D1D1D"/>
<path d="M265.703 74.5H267.422V95.125H265.703V74.5Z" fill="#1D1D1D"/>
<path d="M217.578 74.5H219.297V95.125H217.578V74.5Z" fill="#1D1D1D"/>
</g>
<path d="M15.5 15.5H285C301.292 15.5 314.5 28.7076 314.5 45V134.5H45C28.7076 134.5 15.5 121.292 15.5 105V15.5Z" stroke="black" stroke-opacity="0.1"/>
</g>
<defs>
<filter id="filter0_d_19_697" x="0" y="0" width="330" height="150" filterUnits="userSpaceOnUse" color-interpolation-filters="sRGB">
<feFlood flood-opacity="0" result="BackgroundImageFix"/>
<feColorMatrix in="SourceAlpha" type="matrix" values="0 0 0 0 0 0 0 0 0 0 0 0 0 0 0 0 0 0 127 0" result="hardAlpha"/>
<feOffset/>
<feGaussianBlur stdDeviation="7.5"/>
<feColorMatrix type="matrix" values="0 0 0 0 0 0 0 0 0 0 0 0 0 0 0 0 0 0 0.1 0"/>
<feBlend mode="normal" in2="BackgroundImageFix" result="effect1_dropShadow_19_697"/>
<feBlend mode="normal" in="SourceGraphic" in2="effect1_dropShadow_19_697" result="shape"/>
</filter>
<clipPath id="clip0_19_697">
<rect width="55" height="55" fill="white" transform="translate(215 47)"/>
</clipPath>
</defs>
</svg>
