<svg width="330" height="150" viewBox="0 0 330 150" fill="none" xmlns="http://www.w3.org/2000/svg">
<g filter="url(#filter0_d_19_731)">
<path d="M15 15H285C301.569 15 315 28.4315 315 45V135H45C28.4315 135 15 121.569 15 105V15Z" fill="white"/>
<path d="M77.7728 55.368H72.3968V52.2H87.0368V55.368H81.6608V69H77.7728V55.368ZM92.1595 57.792C92.6075 57.168 93.2075 56.696 93.9595 56.376C94.7275 56.056 95.6075 55.896 96.5995 55.896V59.352C96.1835 59.32 95.9035 59.304 95.7595 59.304C94.6875 59.304 93.8475 59.608 93.2395 60.216C92.6315 60.808 92.3275 61.704 92.3275 62.904V69H88.5835V56.088H92.1595V57.792ZM104.852 69.192C103.492 69.192 102.268 68.912 101.18 68.352C100.108 67.776 99.2685 66.984 98.6605 65.976C98.0525 64.968 97.7485 63.824 97.7485 62.544C97.7485 61.264 98.0525 60.12 98.6605 59.112C99.2685 58.104 100.108 57.32 101.18 56.76C102.268 56.184 103.492 55.896 104.852 55.896C106.212 55.896 107.428 56.184 108.5 56.76C109.572 57.32 110.412 58.104 111.02 59.112C111.628 60.12 111.932 61.264 111.932 62.544C111.932 63.824 111.628 64.968 111.02 65.976C110.412 66.984 109.572 67.776 108.5 68.352C107.428 68.912 106.212 69.192 104.852 69.192ZM104.852 66.12C105.812 66.12 106.596 65.8 107.204 65.16C107.828 64.504 108.14 63.632 108.14 62.544C108.14 61.456 107.828 60.592 107.204 59.952C106.596 59.296 105.812 58.968 104.852 58.968C103.892 58.968 103.1 59.296 102.476 59.952C101.852 60.592 101.54 61.456 101.54 62.544C101.54 63.632 101.852 64.504 102.476 65.16C103.1 65.8 103.892 66.12 104.852 66.12ZM120.675 69.192C119.299 69.192 118.059 68.912 116.955 68.352C115.867 67.776 115.011 66.984 114.387 65.976C113.779 64.968 113.475 63.824 113.475 62.544C113.475 61.264 113.779 60.12 114.387 59.112C115.011 58.104 115.867 57.32 116.955 56.76C118.059 56.184 119.299 55.896 120.675 55.896C122.035 55.896 123.219 56.184 124.227 56.76C125.251 57.32 125.995 58.128 126.459 59.184L123.555 60.744C122.883 59.56 121.915 58.968 120.651 58.968C119.675 58.968 118.867 59.288 118.227 59.928C117.587 60.568 117.267 61.44 117.267 62.544C117.267 63.648 117.587 64.52 118.227 65.16C118.867 65.8 119.675 66.12 120.651 66.12C121.931 66.12 122.899 65.528 123.555 64.344L126.459 65.928C125.995 66.952 125.251 67.752 124.227 68.328C123.219 68.904 122.035 69.192 120.675 69.192ZM133.823 55.896C135.823 55.896 137.359 56.376 138.431 57.336C139.503 58.28 140.039 59.712 140.039 61.632V69H136.535V67.392C135.831 68.592 134.519 69.192 132.599 69.192C131.607 69.192 130.743 69.024 130.007 68.688C129.287 68.352 128.735 67.888 128.351 67.296C127.967 66.704 127.775 66.032 127.775 65.28C127.775 64.08 128.223 63.136 129.119 62.448C130.031 61.76 131.431 61.416 133.319 61.416H136.295C136.295 60.6 136.047 59.976 135.551 59.544C135.055 59.096 134.311 58.872 133.319 58.872C132.631 58.872 131.951 58.984 131.279 59.208C130.623 59.416 130.063 59.704 129.599 60.072L128.255 57.456C128.959 56.96 129.799 56.576 130.775 56.304C131.767 56.032 132.783 55.896 133.823 55.896ZM133.535 66.672C134.175 66.672 134.743 66.528 135.239 66.24C135.735 65.936 136.087 65.496 136.295 64.92V63.6H133.727C132.191 63.6 131.423 64.104 131.423 65.112C131.423 65.592 131.607 65.976 131.975 66.264C132.359 66.536 132.879 66.672 133.535 66.672ZM70.1417 80.192V98H66.5657V96.512C65.6377 97.632 64.2937 98.192 62.5337 98.192C61.3177 98.192 60.2137 97.92 59.2217 97.376C58.2457 96.832 57.4777 96.056 56.9177 95.048C56.3577 94.04 56.0777 92.872 56.0777 91.544C56.0777 90.216 56.3577 89.048 56.9177 88.04C57.4777 87.032 58.2457 86.256 59.2217 85.712C60.2137 85.168 61.3177 84.896 62.5337 84.896C64.1817 84.896 65.4697 85.416 66.3977 86.456V80.192H70.1417ZM63.1817 95.12C64.1257 95.12 64.9097 94.8 65.5337 94.16C66.1577 93.504 66.4697 92.632 66.4697 91.544C66.4697 90.456 66.1577 89.592 65.5337 88.952C64.9097 88.296 64.1257 87.968 63.1817 87.968C62.2217 87.968 61.4297 88.296 60.8057 88.952C60.1817 89.592 59.8697 90.456 59.8697 91.544C59.8697 92.632 60.1817 93.504 60.8057 94.16C61.4297 94.8 62.2217 95.12 63.1817 95.12ZM86.2549 91.592C86.2549 91.64 86.2309 91.976 86.1829 92.6H76.4149C76.5909 93.4 77.0069 94.032 77.6629 94.496C78.3189 94.96 79.1349 95.192 80.1109 95.192C80.7829 95.192 81.3749 95.096 81.8869 94.904C82.4149 94.696 82.9029 94.376 83.3509 93.944L85.3429 96.104C84.1269 97.496 82.3509 98.192 80.0149 98.192C78.5589 98.192 77.2709 97.912 76.1509 97.352C75.0309 96.776 74.1669 95.984 73.5589 94.976C72.9509 93.968 72.6469 92.824 72.6469 91.544C72.6469 90.28 72.9429 89.144 73.5349 88.136C74.1429 87.112 74.9669 86.32 76.0069 85.76C77.0629 85.184 78.2389 84.896 79.5349 84.896C80.7989 84.896 81.9429 85.168 82.9669 85.712C83.9909 86.256 84.7909 87.04 85.3669 88.064C85.9589 89.072 86.2549 90.248 86.2549 91.592ZM79.5589 87.728C78.7109 87.728 77.9989 87.968 77.4229 88.448C76.8469 88.928 76.4949 89.584 76.3669 90.416H82.7269C82.5989 89.6 82.2469 88.952 81.6709 88.472C81.0949 87.976 80.3909 87.728 79.5589 87.728ZM103.176 84.896C104.376 84.896 105.464 85.176 106.44 85.736C107.432 86.28 108.208 87.056 108.768 88.064C109.328 89.056 109.608 90.216 109.608 91.544C109.608 92.872 109.328 94.04 108.768 95.048C108.208 96.04 107.432 96.816 106.44 97.376C105.464 97.92 104.376 98.192 103.176 98.192C101.528 98.192 100.232 97.672 99.2884 96.632V102.656H95.5444V85.088H99.1204V86.576C100.048 85.456 101.4 84.896 103.176 84.896ZM102.528 95.12C103.488 95.12 104.272 94.8 104.88 94.16C105.504 93.504 105.816 92.632 105.816 91.544C105.816 90.456 105.504 89.592 104.88 88.952C104.272 88.296 103.488 87.968 102.528 87.968C101.568 87.968 100.776 88.296 100.152 88.952C99.5444 89.592 99.2404 90.456 99.2404 91.544C99.2404 92.632 99.5444 93.504 100.152 94.16C100.776 94.8 101.568 95.12 102.528 95.12ZM119.963 84.896C121.563 84.896 122.851 85.376 123.827 86.336C124.819 87.296 125.315 88.72 125.315 90.608V98H121.571V91.184C121.571 90.16 121.347 89.4 120.899 88.904C120.451 88.392 119.803 88.136 118.955 88.136C118.011 88.136 117.259 88.432 116.699 89.024C116.139 89.6 115.859 90.464 115.859 91.616V98H112.115V85.088H115.691V86.6C116.187 86.056 116.803 85.64 117.539 85.352C118.275 85.048 119.083 84.896 119.963 84.896ZM141.497 91.592C141.497 91.64 141.473 91.976 141.425 92.6H131.657C131.833 93.4 132.249 94.032 132.905 94.496C133.561 94.96 134.377 95.192 135.353 95.192C136.025 95.192 136.617 95.096 137.129 94.904C137.657 94.696 138.145 94.376 138.593 93.944L140.585 96.104C139.369 97.496 137.593 98.192 135.257 98.192C133.801 98.192 132.513 97.912 131.393 97.352C130.273 96.776 129.409 95.984 128.801 94.976C128.193 93.968 127.889 92.824 127.889 91.544C127.889 90.28 128.185 89.144 128.777 88.136C129.385 87.112 130.209 86.32 131.249 85.76C132.305 85.184 133.481 84.896 134.777 84.896C136.041 84.896 137.185 85.168 138.209 85.712C139.233 86.256 140.033 87.04 140.609 88.064C141.201 89.072 141.497 90.248 141.497 91.592ZM134.801 87.728C133.953 87.728 133.241 87.968 132.665 88.448C132.089 88.928 131.737 89.584 131.609 90.416H137.969C137.841 89.6 137.489 88.952 136.913 88.472C136.337 87.976 135.633 87.728 134.801 87.728ZM156.998 85.088V98H153.446V96.464C152.95 97.024 152.358 97.456 151.67 97.76C150.982 98.048 150.238 98.192 149.438 98.192C147.742 98.192 146.398 97.704 145.406 96.728C144.414 95.752 143.918 94.304 143.918 92.384V85.088H147.662V91.832C147.662 93.912 148.534 94.952 150.278 94.952C151.174 94.952 151.894 94.664 152.438 94.088C152.982 93.496 153.254 92.624 153.254 91.472V85.088H156.998Z" fill="#07359B"/>
<path d="M260.329 89.9908C265.371 81.5569 265.371 71.1061 260.329 62.6722C252.811 50.1129 236.494 45.9876 223.843 53.5048C215.775 58.3635 210.917 66.9808 210.917 76.3315C210.917 81.1902 212.2 85.8655 214.675 89.9908C215.684 91.6409 216.876 93.1994 218.251 94.6662H217.792C216.509 94.6662 215.5 95.6746 215.5 96.958C215.5 98.2414 216.509 99.2498 217.792 99.2498H256.295C257.578 99.2498 258.587 98.2414 258.587 96.958C258.587 95.6746 257.578 94.6662 256.295 94.6662H256.753C258.129 93.2911 259.32 91.6409 260.329 89.9908ZM240.252 94.4828C230.26 95.9496 220.909 89.0741 219.351 79.0817C217.792 69.0893 224.759 59.7386 234.752 58.1802C244.744 56.6217 254.095 63.5889 255.653 73.5813C256.662 80.2734 253.912 86.9656 248.503 90.9992C246.028 92.8327 243.277 94.0244 240.252 94.4828Z" fill="#3C3C3C"/>
<path d="M248.136 73.5813H255.562C255.103 70.556 253.912 67.8058 252.078 65.3307L246.853 70.556C247.494 71.5645 247.861 72.5729 248.136 73.5813Z" fill="white"/>
<path d="M255.653 73.5813H248.228C247.953 72.5728 247.494 71.5644 246.944 70.6477L252.17 65.3307C251.161 63.9556 249.878 62.6721 248.503 61.6637L243.277 66.8891C242.361 66.3391 241.352 65.8807 240.344 65.6057V58.1801C238.51 57.9051 236.677 57.9051 234.843 58.1801V65.6057C233.835 65.8807 232.827 66.3391 231.91 66.8891L226.501 61.6637C225.126 62.6721 223.843 63.9556 222.834 65.3307L228.06 70.556C227.51 71.4728 227.051 72.4812 226.776 73.4896H219.351C219.076 75.323 219.076 77.1565 219.351 78.99H226.776C227.051 79.9984 227.51 81.0068 228.06 81.9235L222.834 87.3323C223.843 88.7074 225.126 89.9908 226.501 90.9992L231.727 85.7738C232.643 86.3238 233.652 86.7822 234.66 87.0572V94.4828C236.494 94.7578 238.327 94.7578 240.161 94.4828V87.0572C241.169 86.7822 242.177 86.3238 243.094 85.7738L248.503 90.9992C249.878 89.9908 251.161 88.7074 252.17 87.3323L246.944 82.1069C247.494 81.1901 247.953 80.1817 248.228 79.1733H255.653C255.928 77.2482 255.928 75.4147 255.653 73.5813ZM237.502 83.6653C233.468 83.6653 230.168 80.3651 230.168 76.3315C230.168 72.2978 233.468 68.9976 237.502 68.9976C241.536 68.9976 244.836 72.2978 244.836 76.3315C244.836 80.3651 241.536 83.6653 237.502 83.6653Z" fill="#07359B"/>
<path d="M226.868 79.0817H219.442C219.901 82.1069 221.092 84.8571 222.926 87.3323L228.151 82.1069C227.51 81.0985 227.143 80.0901 226.868 79.0817Z" fill="white"/>
<path d="M228.151 70.6477L222.834 65.3307C221.001 67.7142 219.809 70.5561 219.351 73.5813H226.776C227.143 72.5729 227.51 71.5645 228.151 70.6477Z" fill="white"/>
<path d="M234.752 65.6974V58.2718C231.727 58.7302 228.976 59.9219 226.501 61.7554L231.727 66.9808C232.735 66.3391 233.743 65.9724 234.752 65.6974Z" fill="white"/>
<path d="M246.853 82.0152L252.17 87.3323C254.003 84.9488 255.195 82.1069 255.653 79.0817H248.228C247.861 80.0901 247.494 81.0985 246.853 82.0152Z" fill="white"/>
<path d="M231.818 85.6822L226.501 90.9992C228.885 92.8327 231.727 94.0244 234.752 94.4828V87.0573C233.743 86.6906 232.735 86.3239 231.818 85.6822Z" fill="white"/>
<path d="M243.186 66.9808L248.503 61.6637C246.119 59.8303 243.277 58.6385 240.252 58.1802V65.6057C241.261 65.9724 242.269 66.3391 243.186 66.9808Z" fill="white"/>
<path d="M240.252 86.9656V94.3911C243.277 93.9328 246.028 92.741 248.503 90.9075L243.277 85.6822C242.269 86.3239 241.261 86.6906 240.252 86.9656Z" fill="white"/>
<path d="M237.502 68.9976C233.468 68.9976 230.168 72.2978 230.168 76.3315C230.168 80.3651 233.468 83.6653 237.502 83.6653C241.536 83.6653 244.836 80.3651 244.836 76.3315C244.836 72.2978 241.536 68.9976 237.502 68.9976ZM237.502 78.1649C236.494 78.1649 235.669 77.3399 235.669 76.3315C235.669 75.3231 236.494 74.498 237.502 74.498C238.51 74.498 239.335 75.3231 239.335 76.3315C239.335 77.3399 238.51 78.1649 237.502 78.1649Z" fill="#07359B"/>
<path d="M237.502 78.1649C238.515 78.1649 239.335 77.3441 239.335 76.3315C239.335 75.3189 238.515 74.498 237.502 74.498C236.489 74.498 235.669 75.3189 235.669 76.3315C235.669 77.3441 236.489 78.1649 237.502 78.1649Z" fill="white"/>
<path d="M237.502 79.0817C239.06 79.0817 240.252 77.8899 240.252 76.3315C240.252 74.773 239.06 73.5813 237.502 73.5813C235.944 73.5813 234.752 74.773 234.752 76.3315C234.752 77.8899 235.944 79.0817 237.502 79.0817ZM237.502 75.4147C238.052 75.4147 238.419 75.7814 238.419 76.3315C238.419 76.8815 238.052 77.2482 237.502 77.2482C236.952 77.2482 236.585 76.8815 236.585 76.3315C236.585 75.7814 236.952 75.4147 237.502 75.4147Z" fill="#1D1D1D"/>
<path d="M214.584 96.958C214.584 98.6998 216.05 100.167 217.792 100.167H256.295C258.037 100.167 259.504 98.6998 259.504 96.958C259.504 95.9496 259.045 95.0328 258.22 94.3911C268.213 82.9319 267.021 65.6057 255.562 55.6133C244.102 45.6209 226.776 46.8126 216.784 58.2718C212.384 63.2222 210 69.6393 210 76.3315C210 82.8403 212.292 89.0741 216.509 94.0244C215.317 94.5745 214.584 95.6745 214.584 96.958ZM215.959 90.2658L217.884 88.9824L216.876 87.4239L215.042 88.6157C213.117 85.2238 212.017 81.2818 211.833 77.2482H214.584V75.4147H211.833C212.017 71.3811 213.025 67.4392 214.95 63.9556L216.784 65.1473L217.792 63.5889L215.867 62.3054C217.884 59.2802 220.451 56.7134 223.476 54.6966L224.759 56.6217L226.318 55.6133L225.126 53.7798C228.61 51.9464 232.552 50.8463 236.585 50.6629V52.4964H238.419V50.6629C242.452 50.8463 246.394 51.8547 249.878 53.7798L248.686 55.6133L250.245 56.6217L251.528 54.6966C254.553 56.7134 257.12 59.2802 259.137 62.3054L257.212 63.5889L258.22 65.1473L260.054 63.9556C261.979 67.4392 263.079 71.3811 263.171 75.4147H260.42V77.2482H263.171C263.079 81.2818 261.979 85.2238 260.054 88.7074L258.22 87.5156L257.212 89.0741L259.137 90.3575C258.312 91.5492 257.395 92.741 256.478 93.8411H250.336V95.6745H256.295C256.387 95.6745 256.478 95.6745 256.57 95.6745H256.662C257.395 95.8579 257.853 96.5913 257.67 97.3247C257.487 97.9664 256.937 98.4247 256.295 98.4247H225.493L226.41 97.1413L224.851 96.1329L223.293 98.3331H217.792C217.059 98.3331 216.417 97.6914 216.417 96.958C216.417 96.2246 217.059 95.5829 217.792 95.5829H221.001V93.7494H218.709C217.701 92.6493 216.784 91.5492 215.959 90.2658Z" fill="#1D1D1D"/>
<path d="M237.502 95.5828C248.136 95.5828 256.753 86.9656 256.753 76.3314C256.753 65.6973 248.136 57.08 237.502 57.08C226.868 57.08 218.251 65.6973 218.251 76.3314C218.251 86.9656 226.868 95.5828 237.502 95.5828ZM233.835 93.3827C231.727 92.9243 229.71 92.0993 227.968 90.9075L232.002 86.8739C232.643 87.2406 233.285 87.4239 233.927 87.6989V93.3827H233.835ZM241.169 93.3827V87.6989C241.811 87.5156 242.452 87.2406 243.094 86.8739L247.128 90.9075C245.294 92.0993 243.277 92.9243 241.169 93.3827ZM252.078 85.8655L248.044 81.8318C248.411 81.1901 248.594 80.5484 248.87 79.9067H254.553C254.095 82.1069 253.27 84.1237 252.078 85.8655ZM254.553 72.6645H248.87C248.686 72.0228 248.411 71.3811 248.044 70.7394L252.078 66.7057C253.27 68.5392 254.095 70.556 254.553 72.6645ZM241.169 59.2802C243.277 59.7386 245.294 60.5636 247.036 61.7554L243.002 65.789C242.361 65.4223 241.719 65.239 241.077 64.964V59.2802H241.169ZM233.835 59.2802V64.964C233.193 65.1473 232.552 65.4223 231.91 65.789L227.876 61.7554C229.71 60.5636 231.727 59.7386 233.835 59.2802ZM226.41 62.8555L231.085 67.5308C231.36 67.8058 231.818 67.8975 232.185 67.6225C233.01 67.0724 233.927 66.7057 234.935 66.4307C235.302 66.3391 235.669 65.9724 235.669 65.514V58.8218C236.86 58.7302 238.144 58.7302 239.335 58.8218V65.514C239.335 65.9724 239.61 66.3391 240.069 66.4307C240.986 66.7057 241.902 67.0724 242.819 67.6225C243.186 67.8058 243.644 67.8058 243.919 67.5308L248.594 62.8555C249.42 63.5889 250.245 64.3222 250.978 65.239L246.303 69.9143C246.028 70.1893 245.936 70.6477 246.211 71.0144C246.761 71.8395 247.128 72.7562 247.403 73.7646C247.494 74.1313 247.861 74.4063 248.319 74.498H255.012C255.103 75.6897 255.103 76.9732 255.012 78.1649H248.319C247.861 78.1649 247.494 78.4399 247.403 78.8983C247.128 79.815 246.761 80.7318 246.211 81.6485C246.028 82.0152 246.028 82.4736 246.303 82.7486L250.978 87.4239C250.245 88.249 249.511 89.074 248.594 89.8074L243.919 85.1321C243.644 84.8571 243.186 84.7654 242.819 85.0404C241.994 85.5905 241.077 85.9571 240.069 86.2322C239.702 86.3238 239.335 86.6905 239.335 87.1489V93.8411C238.144 93.9327 236.86 93.9327 235.669 93.8411V87.1489C235.669 86.6905 235.394 86.3238 234.935 86.2322C234.018 85.9571 233.102 85.5905 232.185 85.0404C231.818 84.8571 231.36 84.8571 231.085 85.1321L226.41 89.8074C225.584 89.074 224.759 88.3407 224.026 87.4239L228.701 82.7486C228.976 82.4736 229.068 82.0152 228.793 81.6485C228.243 80.8234 227.876 79.9067 227.601 78.8983C227.51 78.5316 227.143 78.2566 226.685 78.1649H219.992C219.901 76.9732 219.901 75.6897 219.992 74.498H226.685C227.143 74.498 227.51 74.223 227.601 73.7646C227.876 72.8479 228.243 71.9311 228.793 71.0144C228.976 70.6477 228.976 70.1893 228.701 69.9143L224.026 65.239C224.759 64.4139 225.584 63.5889 226.41 62.8555ZM222.926 85.8655C221.734 84.032 220.909 82.1069 220.451 79.9984H226.135C226.318 80.6401 226.593 81.2818 226.96 81.9235L222.926 85.8655ZM220.451 72.6645C220.909 70.556 221.734 68.5392 222.926 66.7974L226.96 70.831C226.593 71.4728 226.41 72.1145 226.135 72.7562H220.451V72.6645Z" fill="#1D1D1D"/>
<path d="M237.502 84.5821C242.086 84.5821 245.753 80.9151 245.753 76.3315C245.753 71.7478 242.086 68.0809 237.502 68.0809C232.918 68.0809 229.251 71.7478 229.251 76.3315C229.251 80.9151 232.918 84.5821 237.502 84.5821ZM237.502 69.9143C241.077 69.9143 243.919 72.7562 243.919 76.3315C243.919 79.9067 241.077 82.7486 237.502 82.7486C233.927 82.7486 231.085 79.9067 231.085 76.3315C231.085 72.7562 233.927 69.9143 237.502 69.9143Z" fill="#1D1D1D"/>
<path d="M15.5 15.5H285C301.292 15.5 314.5 28.7076 314.5 45V134.5H45C28.7076 134.5 15.5 121.292 15.5 105V15.5Z" stroke="black" stroke-opacity="0.1"/>
</g>
<defs>
<filter id="filter0_d_19_731" x="0" y="0" width="330" height="150" filterUnits="userSpaceOnUse" color-interpolation-filters="sRGB">
<feFlood flood-opacity="0" result="BackgroundImageFix"/>
<feColorMatrix in="SourceAlpha" type="matrix" values="0 0 0 0 0 0 0 0 0 0 0 0 0 0 0 0 0 0 127 0" result="hardAlpha"/>
<feOffset/>
<feGaussianBlur stdDeviation="7.5"/>
<feColorMatrix type="matrix" values="0 0 0 0 0 0 0 0 0 0 0 0 0 0 0 0 0 0 0.1 0"/>
<feBlend mode="normal" in2="BackgroundImageFix" result="effect1_dropShadow_19_731"/>
<feBlend mode="normal" in="SourceGraphic" in2="effect1_dropShadow_19_731" result="shape"/>
</filter>
</defs>
</svg>
