<svg width="330" height="150" viewBox="0 0 330 150" fill="none" xmlns="http://www.w3.org/2000/svg">
<g filter="url(#filter0_d_19_100)">
<path d="M15 15H285C301.569 15 315 28.4315 315 45V135H45C28.4315 135 15 121.569 15 105V15Z" fill="white"/>
<path d="M78.5784 69.288C77.2504 69.288 75.9624 69.112 74.7144 68.76C73.4824 68.392 72.4904 67.92 71.7384 67.344L73.0584 64.416C73.7784 64.944 74.6344 65.368 75.6264 65.688C76.6184 66.008 77.6104 66.168 78.6024 66.168C79.7064 66.168 80.5224 66.008 81.0504 65.688C81.5784 65.352 81.8424 64.912 81.8424 64.368C81.8424 63.968 81.6824 63.64 81.3624 63.384C81.0584 63.112 80.6584 62.896 80.1624 62.736C79.6824 62.576 79.0264 62.4 78.1944 62.208C76.9144 61.904 75.8664 61.6 75.0504 61.296C74.2344 60.992 73.5304 60.504 72.9384 59.832C72.3624 59.16 72.0744 58.264 72.0744 57.144C72.0744 56.168 72.3384 55.288 72.8664 54.504C73.3944 53.704 74.1864 53.072 75.2424 52.608C76.3144 52.144 77.6184 51.912 79.1544 51.912C80.2264 51.912 81.2744 52.04 82.2984 52.296C83.3224 52.552 84.2184 52.92 84.9864 53.4L83.7864 56.352C82.2344 55.472 80.6824 55.032 79.1304 55.032C78.0424 55.032 77.2344 55.208 76.7064 55.56C76.1944 55.912 75.9384 56.376 75.9384 56.952C75.9384 57.528 76.2344 57.96 76.8264 58.248C77.4344 58.52 78.3544 58.792 79.5864 59.064C80.8664 59.368 81.9144 59.672 82.7304 59.976C83.5464 60.28 84.2424 60.76 84.8184 61.416C85.4104 62.072 85.7064 62.96 85.7064 64.08C85.7064 65.04 85.4344 65.92 84.8904 66.72C84.3624 67.504 83.5624 68.128 82.4904 68.592C81.4184 69.056 80.1144 69.288 78.5784 69.288ZM94.2431 69.192C92.8831 69.192 91.6591 68.912 90.5711 68.352C89.4991 67.776 88.6591 66.984 88.0511 65.976C87.4431 64.968 87.1391 63.824 87.1391 62.544C87.1391 61.264 87.4431 60.12 88.0511 59.112C88.6591 58.104 89.4991 57.32 90.5711 56.76C91.6591 56.184 92.8831 55.896 94.2431 55.896C95.6031 55.896 96.8191 56.184 97.8911 56.76C98.9631 57.32 99.8031 58.104 100.411 59.112C101.019 60.12 101.323 61.264 101.323 62.544C101.323 63.824 101.019 64.968 100.411 65.976C99.8031 66.984 98.9631 67.776 97.8911 68.352C96.8191 68.912 95.6031 69.192 94.2431 69.192ZM94.2431 66.12C95.2031 66.12 95.9871 65.8 96.5951 65.16C97.2191 64.504 97.5311 63.632 97.5311 62.544C97.5311 61.456 97.2191 60.592 96.5951 59.952C95.9871 59.296 95.2031 58.968 94.2431 58.968C93.2831 58.968 92.4911 59.296 91.8671 59.952C91.2431 60.592 90.9311 61.456 90.9311 62.544C90.9311 63.632 91.2431 64.504 91.8671 65.16C92.4911 65.8 93.2831 66.12 94.2431 66.12ZM110.066 69.192C108.69 69.192 107.45 68.912 106.346 68.352C105.258 67.776 104.402 66.984 103.778 65.976C103.17 64.968 102.866 63.824 102.866 62.544C102.866 61.264 103.17 60.12 103.778 59.112C104.402 58.104 105.258 57.32 106.346 56.76C107.45 56.184 108.69 55.896 110.066 55.896C111.426 55.896 112.61 56.184 113.618 56.76C114.642 57.32 115.386 58.128 115.85 59.184L112.946 60.744C112.274 59.56 111.306 58.968 110.042 58.968C109.066 58.968 108.258 59.288 107.618 59.928C106.978 60.568 106.658 61.44 106.658 62.544C106.658 63.648 106.978 64.52 107.618 65.16C108.258 65.8 109.066 66.12 110.042 66.12C111.322 66.12 112.29 65.528 112.946 64.344L115.85 65.928C115.386 66.952 114.642 67.752 113.618 68.328C112.61 68.904 111.426 69.192 110.066 69.192ZM123.985 69.192C122.625 69.192 121.401 68.912 120.313 68.352C119.241 67.776 118.401 66.984 117.793 65.976C117.185 64.968 116.881 63.824 116.881 62.544C116.881 61.264 117.185 60.12 117.793 59.112C118.401 58.104 119.241 57.32 120.313 56.76C121.401 56.184 122.625 55.896 123.985 55.896C125.345 55.896 126.561 56.184 127.633 56.76C128.705 57.32 129.545 58.104 130.153 59.112C130.761 60.12 131.065 61.264 131.065 62.544C131.065 63.824 130.761 64.968 130.153 65.976C129.545 66.984 128.705 67.776 127.633 68.352C126.561 68.912 125.345 69.192 123.985 69.192ZM123.985 66.12C124.945 66.12 125.729 65.8 126.337 65.16C126.961 64.504 127.273 63.632 127.273 62.544C127.273 61.456 126.961 60.592 126.337 59.952C125.729 59.296 124.945 58.968 123.985 58.968C123.025 58.968 122.233 59.296 121.609 59.952C120.985 60.592 120.673 61.456 120.673 62.544C120.673 63.632 120.985 64.504 121.609 65.16C122.233 65.8 123.025 66.12 123.985 66.12ZM137.144 57.792C137.592 57.168 138.192 56.696 138.944 56.376C139.712 56.056 140.592 55.896 141.584 55.896V59.352C141.168 59.32 140.888 59.304 140.744 59.304C139.672 59.304 138.832 59.608 138.224 60.216C137.616 60.808 137.312 61.704 137.312 62.904V69H133.568V56.088H137.144V57.792ZM147.386 57.792C147.834 57.168 148.434 56.696 149.186 56.376C149.954 56.056 150.834 55.896 151.826 55.896V59.352C151.41 59.32 151.13 59.304 150.986 59.304C149.914 59.304 149.074 59.608 148.466 60.216C147.858 60.808 147.554 61.704 147.554 62.904V69H143.81V56.088H147.386V57.792ZM160.079 69.192C158.719 69.192 157.495 68.912 156.407 68.352C155.335 67.776 154.495 66.984 153.887 65.976C153.279 64.968 152.975 63.824 152.975 62.544C152.975 61.264 153.279 60.12 153.887 59.112C154.495 58.104 155.335 57.32 156.407 56.76C157.495 56.184 158.719 55.896 160.079 55.896C161.439 55.896 162.655 56.184 163.727 56.76C164.799 57.32 165.639 58.104 166.247 59.112C166.855 60.12 167.159 61.264 167.159 62.544C167.159 63.824 166.855 64.968 166.247 65.976C165.639 66.984 164.799 67.776 163.727 68.352C162.655 68.912 161.439 69.192 160.079 69.192ZM160.079 66.12C161.039 66.12 161.823 65.8 162.431 65.16C163.055 64.504 163.367 63.632 163.367 62.544C163.367 61.456 163.055 60.592 162.431 59.952C161.823 59.296 161.039 58.968 160.079 58.968C159.119 58.968 158.327 59.296 157.703 59.952C157.079 60.592 156.767 61.456 156.767 62.544C156.767 63.632 157.079 64.504 157.703 65.16C158.327 65.8 159.119 66.12 160.079 66.12ZM76.264 84.896C77.88 84.896 79.16 85.376 80.104 86.336C81.064 87.28 81.544 88.704 81.544 90.608V98H77.8V91.184C77.8 90.16 77.584 89.4 77.152 88.904C76.736 88.392 76.136 88.136 75.352 88.136C74.472 88.136 73.776 88.424 73.264 89C72.752 89.56 72.496 90.4 72.496 91.52V98H68.752V91.184C68.752 89.152 67.936 88.136 66.304 88.136C65.44 88.136 64.752 88.424 64.24 89C63.728 89.56 63.472 90.4 63.472 91.52V98H59.728V85.088H63.304V86.576C63.784 86.032 64.368 85.616 65.056 85.328C65.76 85.04 66.528 84.896 67.36 84.896C68.272 84.896 69.096 85.08 69.832 85.448C70.568 85.8 71.16 86.32 71.608 87.008C72.136 86.336 72.8 85.816 73.6 85.448C74.416 85.08 75.304 84.896 76.264 84.896ZM97.6885 91.592C97.6885 91.64 97.6645 91.976 97.6165 92.6H87.8485C88.0245 93.4 88.4405 94.032 89.0965 94.496C89.7525 94.96 90.5685 95.192 91.5445 95.192C92.2165 95.192 92.8085 95.096 93.3205 94.904C93.8485 94.696 94.3365 94.376 94.7845 93.944L96.7765 96.104C95.5605 97.496 93.7845 98.192 91.4485 98.192C89.9925 98.192 88.7045 97.912 87.5845 97.352C86.4645 96.776 85.6005 95.984 84.9925 94.976C84.3845 93.968 84.0805 92.824 84.0805 91.544C84.0805 90.28 84.3765 89.144 84.9685 88.136C85.5765 87.112 86.4005 86.32 87.4405 85.76C88.4965 85.184 89.6725 84.896 90.9685 84.896C92.2325 84.896 93.3765 85.168 94.4005 85.712C95.4245 86.256 96.2245 87.04 96.8005 88.064C97.3925 89.072 97.6885 90.248 97.6885 91.592ZM90.9925 87.728C90.1445 87.728 89.4325 87.968 88.8565 88.448C88.2805 88.928 87.9285 89.584 87.8005 90.416H94.1605C94.0325 89.6 93.6805 88.952 93.1045 88.472C92.5285 87.976 91.8245 87.728 90.9925 87.728ZM106.421 98.192C105.045 98.192 103.805 97.912 102.701 97.352C101.613 96.776 100.757 95.984 100.133 94.976C99.5251 93.968 99.2211 92.824 99.2211 91.544C99.2211 90.264 99.5251 89.12 100.133 88.112C100.757 87.104 101.613 86.32 102.701 85.76C103.805 85.184 105.045 84.896 106.421 84.896C107.781 84.896 108.965 85.184 109.973 85.76C110.997 86.32 111.741 87.128 112.205 88.184L109.301 89.744C108.629 88.56 107.661 87.968 106.397 87.968C105.421 87.968 104.613 88.288 103.973 88.928C103.333 89.568 103.013 90.44 103.013 91.544C103.013 92.648 103.333 93.52 103.973 94.16C104.613 94.8 105.421 95.12 106.397 95.12C107.677 95.12 108.645 94.528 109.301 93.344L112.205 94.928C111.741 95.952 110.997 96.752 109.973 97.328C108.965 97.904 107.781 98.192 106.421 98.192ZM119.569 84.896C121.569 84.896 123.105 85.376 124.177 86.336C125.249 87.28 125.785 88.712 125.785 90.632V98H122.281V96.392C121.577 97.592 120.265 98.192 118.345 98.192C117.353 98.192 116.489 98.024 115.753 97.688C115.033 97.352 114.481 96.888 114.097 96.296C113.713 95.704 113.521 95.032 113.521 94.28C113.521 93.08 113.969 92.136 114.865 91.448C115.777 90.76 117.177 90.416 119.065 90.416H122.041C122.041 89.6 121.793 88.976 121.297 88.544C120.801 88.096 120.057 87.872 119.065 87.872C118.377 87.872 117.697 87.984 117.025 88.208C116.369 88.416 115.809 88.704 115.345 89.072L114.001 86.456C114.705 85.96 115.545 85.576 116.521 85.304C117.513 85.032 118.529 84.896 119.569 84.896ZM119.281 95.672C119.921 95.672 120.489 95.528 120.985 95.24C121.481 94.936 121.833 94.496 122.041 93.92V92.6H119.473C117.937 92.6 117.169 93.104 117.169 94.112C117.169 94.592 117.353 94.976 117.721 95.264C118.105 95.536 118.625 95.672 119.281 95.672ZM122.041 83.432L119.953 81.608L117.865 83.432H115.129L118.297 79.976H121.609L124.777 83.432H122.041ZM137.021 84.896C138.621 84.896 139.909 85.376 140.885 86.336C141.877 87.296 142.373 88.72 142.373 90.608V98H138.629V91.184C138.629 90.16 138.405 89.4 137.957 88.904C137.509 88.392 136.861 88.136 136.013 88.136C135.069 88.136 134.317 88.432 133.757 89.024C133.197 89.6 132.917 90.464 132.917 91.616V98H129.173V85.088H132.749V86.6C133.245 86.056 133.861 85.64 134.597 85.352C135.333 85.048 136.141 84.896 137.021 84.896ZM145.767 85.088H149.511V98H145.767V85.088ZM147.639 83.288C146.951 83.288 146.391 83.088 145.959 82.688C145.527 82.288 145.311 81.792 145.311 81.2C145.311 80.608 145.527 80.112 145.959 79.712C146.391 79.312 146.951 79.112 147.639 79.112C148.327 79.112 148.887 79.304 149.319 79.688C149.751 80.072 149.967 80.552 149.967 81.128C149.967 81.752 149.751 82.272 149.319 82.688C148.887 83.088 148.327 83.288 147.639 83.288ZM159.226 98.192C157.85 98.192 156.61 97.912 155.506 97.352C154.418 96.776 153.562 95.984 152.938 94.976C152.33 93.968 152.026 92.824 152.026 91.544C152.026 90.264 152.33 89.12 152.938 88.112C153.562 87.104 154.418 86.32 155.506 85.76C156.61 85.184 157.85 84.896 159.226 84.896C160.586 84.896 161.77 85.184 162.778 85.76C163.802 86.32 164.546 87.128 165.01 88.184L162.106 89.744C161.434 88.56 160.466 87.968 159.202 87.968C158.226 87.968 157.418 88.288 156.778 88.928C156.138 89.568 155.818 90.44 155.818 91.544C155.818 92.648 156.138 93.52 156.778 94.16C157.418 94.8 158.226 95.12 159.202 95.12C160.482 95.12 161.45 94.528 162.106 93.344L165.01 94.928C164.546 95.952 163.802 96.752 162.778 97.328C161.77 97.904 160.586 98.192 159.226 98.192ZM173.145 98.192C171.785 98.192 170.561 97.912 169.473 97.352C168.401 96.776 167.561 95.984 166.953 94.976C166.345 93.968 166.041 92.824 166.041 91.544C166.041 90.264 166.345 89.12 166.953 88.112C167.561 87.104 168.401 86.32 169.473 85.76C170.561 85.184 171.785 84.896 173.145 84.896C174.505 84.896 175.721 85.184 176.793 85.76C177.865 86.32 178.705 87.104 179.313 88.112C179.921 89.12 180.225 90.264 180.225 91.544C180.225 92.824 179.921 93.968 179.313 94.976C178.705 95.984 177.865 96.776 176.793 97.352C175.721 97.912 174.505 98.192 173.145 98.192ZM173.145 95.12C174.105 95.12 174.889 94.8 175.497 94.16C176.121 93.504 176.433 92.632 176.433 91.544C176.433 90.456 176.121 89.592 175.497 88.952C174.889 88.296 174.105 87.968 173.145 87.968C172.185 87.968 171.393 88.296 170.769 88.952C170.145 89.592 169.833 90.456 169.833 91.544C169.833 92.632 170.145 93.504 170.769 94.16C171.393 94.8 172.185 95.12 173.145 95.12Z" fill="#07359B"/>
<g clip-path="url(#clip0_19_100)">
<path d="M267.626 86.0783L220.362 94.7225C219.89 94.7997 219.405 94.6855 219.017 94.4052C218.628 94.1249 218.367 93.7015 218.291 93.2283L215.944 80.2942C215.77 79.3959 216.281 78.5057 217.145 78.2042C217.741 78.0117 218.337 77.8192 218.932 77.6358C233.388 73.0985 248.354 70.3855 263.482 69.56C263.941 69.5233 264.399 69.4958 264.857 69.4775C265.772 69.449 266.565 70.1048 266.709 71.0083L269.056 83.9425C269.242 84.9253 268.605 85.8757 267.626 86.0783Z" fill="#07359B"/>
<path d="M269.056 83.9425L266.709 71.0083C266.565 70.1048 265.772 69.449 264.857 69.4775C264.399 69.4958 263.941 69.5233 263.482 69.56C263.266 69.5719 263.051 69.593 262.834 69.6058C263.425 69.8489 263.85 70.3786 263.959 71.0083L266.306 83.9425C266.492 84.9253 265.855 85.8757 264.876 86.0783L219.093 94.4512C219.464 94.7039 219.92 94.8025 220.362 94.7262L267.626 86.082C268.607 85.8794 269.244 84.9266 269.056 83.9425Z" fill="white"/>
<path d="M223.706 85.5247C224.973 85.5247 226 84.5019 226 83.2403C226 81.9787 224.973 80.956 223.706 80.956C222.44 80.956 221.413 81.9787 221.413 83.2403C221.413 84.5019 222.44 85.5247 223.706 85.5247Z" fill="#FFDC00"/>
<path d="M260.403 78.6973C261.669 78.6973 262.696 77.6746 262.696 76.413C262.696 75.1514 261.669 74.1287 260.403 74.1287C259.136 74.1287 258.109 75.1514 258.109 76.413C258.109 77.6746 259.136 78.6973 260.403 78.6973Z" fill="#FFDC00"/>
<path d="M252.656 80.0082L232.799 83.607C231.805 83.7899 230.85 83.1339 230.665 82.1403L230.337 80.3418C230.25 79.864 230.357 79.3713 230.634 78.9725C230.911 78.5737 231.335 78.3015 231.813 78.2161L251.667 74.6136C252.662 74.4314 253.616 75.0899 253.8 76.0848L254.132 77.8833C254.309 78.8774 253.649 79.8274 252.656 80.0082Z" fill="#F5F5F5"/>
<path d="M266.012 86.3717L266.975 91.6141C267.153 92.6085 266.493 93.5595 265.499 93.7407L260.082 94.7216C259.085 94.9015 258.13 94.2418 257.946 93.2457L256.992 88.0207L266.012 86.3717Z" fill="#1D1D1D"/>
<path d="M266.975 91.6141L266.012 86.3717L263.354 86.8584L264.228 91.6141C264.406 92.6085 263.746 93.5595 262.752 93.7407L258.776 94.4603C259.165 94.7071 259.631 94.8003 260.084 94.7216L265.502 93.7407C266.495 93.5582 267.153 92.6076 266.975 91.6141Z" fill="#1D1D1D"/>
<path d="M263.482 69.56C248.354 70.3855 233.388 73.0985 218.932 77.6358L220.903 56.1308C220.974 55.3008 221.588 54.6192 222.407 54.4625L252.152 48.9442C252.969 48.7994 253.78 49.2203 254.132 49.9708L263.482 69.56Z" fill="white"/>
<path d="M254.132 49.9708C253.78 49.2203 252.969 48.7994 252.152 48.9442L250.71 49.2118C251 49.3974 251.233 49.6602 251.382 49.9708L260.732 69.56C246.59 70.3404 232.588 72.7708 219.009 76.8017L218.932 77.6404C233.388 73.1031 248.354 70.3901 263.482 69.5646L254.132 49.9708Z" fill="#A7C0F7"/>
<path d="M249.642 58.5417L255.959 53.2562C256.216 53.0476 256.34 52.7172 256.285 52.3914C256.229 52.0656 256.003 51.7948 255.692 51.6827C255.381 51.5706 255.034 51.6345 254.783 51.85L248.464 57.1382C248.345 57.2379 248.203 57.3055 248.05 57.3344L244.006 58.0833C243.541 58.1702 243.218 58.5966 243.261 59.0677C243.304 59.5388 243.699 59.8998 244.172 59.9011C244.228 59.9011 244.284 59.8962 244.34 59.8864L248.386 59.1357C248.848 59.0484 249.281 58.8439 249.642 58.5417Z" fill="#1D1D1D"/>
<path d="M259.196 60.0193L252.413 61.2761C252.044 61.345 251.694 61.4889 251.383 61.6987L245.876 65.4167C245.456 65.6994 245.344 66.2693 245.627 66.6895C245.91 67.1097 246.48 67.2211 246.9 66.9383L252.415 63.2167C252.516 63.1475 252.631 63.1003 252.752 63.0782L259.53 61.8215C260.028 61.7294 260.357 61.251 260.265 60.7531C260.172 60.2552 259.694 59.9263 259.196 60.0184V60.0193Z" fill="#1D1D1D"/>
<path d="M238.717 62.0782L236.125 60.9369C235.567 60.6899 234.922 60.7394 234.409 61.0689L231.791 62.7428L231.169 59.2118L233.133 58.1118C233.574 57.8634 233.731 57.3043 233.482 56.8628C233.234 56.4213 232.675 56.2648 232.233 56.5131L230.271 57.6131C229.581 58.0007 229.213 58.7833 229.354 59.5619L229.897 62.6053L227.869 61.5667C227.328 61.2909 226.685 61.3036 226.155 61.6006L224.033 62.7877C223.747 62.9475 223.568 63.2477 223.563 63.5752C223.559 63.9027 223.729 64.2078 224.011 64.3754C224.292 64.5431 224.642 64.548 224.927 64.3882L227.036 63.1965L229.18 64.2892L225.927 66.1152C225.499 66.3524 225.185 66.7504 225.052 67.2207L224.01 70.8635C223.943 71.0975 223.971 71.3487 224.089 71.5616C224.207 71.7745 224.405 71.9316 224.64 71.9983C224.722 72.0211 224.807 72.0329 224.892 72.0332C225.301 72.033 225.66 71.7618 225.773 71.3686L226.825 67.7157L230.702 65.5478L231.71 67.8119C231.895 68.2313 232.23 68.5666 232.649 68.7524L235.36 69.9441C235.661 70.0836 236.014 70.0496 236.283 69.8553C236.551 69.661 236.694 69.3366 236.656 69.0071C236.618 68.6776 236.405 68.3944 236.099 68.2666L233.377 67.0667L232.284 64.6018L235.384 62.6117L237.977 63.7538C238.277 63.886 238.624 63.8482 238.888 63.6548C239.153 63.4613 239.294 63.1416 239.258 62.816C239.223 62.4904 239.017 62.2085 238.717 62.0763V62.0782Z" fill="#1D1D1D"/>
<path d="M267.25 94.75H217.75C216.737 94.75 215.917 95.5708 215.917 96.5833V100.25C215.917 101.263 216.737 102.083 217.75 102.083H267.25C268.263 102.083 269.083 101.263 269.083 100.25V96.5833C269.083 95.5708 268.263 94.75 267.25 94.75Z" fill="#395462"/>
<path d="M267.25 94.75H264.5C265.513 94.75 266.333 95.5708 266.333 96.5833V100.25C266.333 101.263 265.513 102.083 264.5 102.083H267.25C268.263 102.083 269.083 101.263 269.083 100.25V96.5833C269.083 95.5708 268.263 94.75 267.25 94.75Z" fill="#37474F"/>
<path d="M223.708 86.4422C223.901 86.4423 224.093 86.4251 224.283 86.3909C225.975 86.0849 227.127 84.5019 226.897 82.798C226.667 81.0941 225.137 79.8725 223.425 80.0255C221.712 80.1784 220.423 81.6517 220.499 83.3694C220.575 85.087 221.989 86.4409 223.708 86.4422ZM222.573 82.4667C222.78 82.1659 223.099 81.9608 223.459 81.8974C223.541 81.8821 223.623 81.8745 223.706 81.8745C224.37 81.8731 224.94 82.3458 225.061 82.9983C225.126 83.356 225.045 83.7247 224.838 84.0229C224.63 84.3211 224.312 84.5244 223.954 84.5878C223.208 84.7261 222.491 84.2338 222.352 83.4878C222.285 83.1316 222.365 82.7637 222.573 82.4667Z" fill="#1D1D1D"/>
<path d="M260.402 79.6149C260.594 79.6145 260.787 79.5974 260.976 79.5636C262.668 79.2576 263.819 77.675 263.589 75.9716C263.36 74.2683 261.83 73.0471 260.118 73.2C258.406 73.3529 257.118 74.8257 257.193 76.5429C257.269 78.26 258.683 79.6135 260.402 79.6149ZM259.269 75.6357C259.478 75.3361 259.797 75.1317 260.156 75.0673C260.238 75.0528 260.32 75.0455 260.403 75.0453C261.066 75.0443 261.636 75.5165 261.757 76.1682C261.822 76.5261 261.742 76.895 261.534 77.1934C261.326 77.4919 261.008 77.6953 260.65 77.7587C259.904 77.8964 259.188 77.4042 259.049 76.6587C258.982 76.3018 259.062 75.9332 259.269 75.6357Z" fill="#1D1D1D"/>
<path d="M229.763 82.3007C230.005 83.6058 231.143 84.5528 232.471 84.5539C232.636 84.5537 232.8 84.539 232.962 84.5099L252.819 80.9083C253.536 80.7792 254.173 80.37 254.588 79.7711C255.004 79.1722 255.164 78.4327 255.034 77.7156L254.705 75.9171C254.427 74.4271 252.999 73.4408 251.507 73.7088L231.649 77.3104C230.157 77.5817 229.167 79.0097 229.435 80.5022L229.763 82.3007ZM241.66 81.0697L238.049 81.7242L237.393 78.1336L241.004 77.4791L241.66 81.0697ZM242.809 77.15L246.42 76.4955L247.076 80.0861L243.464 80.7406L242.809 77.15ZM251.834 75.5147C251.889 75.504 251.944 75.4988 251.999 75.4991C252.441 75.4982 252.821 75.8127 252.902 76.2471L253.23 78.0456C253.273 78.2841 253.22 78.5299 253.081 78.7287C252.942 78.9276 252.73 79.063 252.492 79.1052L248.88 79.7597L248.224 76.1682L251.834 75.5147ZM231.385 79.493C231.524 79.2926 231.737 79.1558 231.977 79.1126L235.589 78.4581L236.245 82.0496L232.636 82.7032C232.138 82.7957 231.66 82.4674 231.567 81.9698L231.239 80.175C231.194 79.9378 231.247 79.6925 231.385 79.4948V79.493Z" fill="#1D1D1D"/>
<path d="M267.25 93.8334H267.152C267.763 93.202 268.033 92.3149 267.877 91.45L267.079 87.1087L267.795 86.9785C269.273 86.6867 270.237 85.2566 269.954 83.7775L267.617 70.8433C267.388 69.4894 266.192 68.5141 264.82 68.5627C264.562 68.5746 264.306 68.5984 264.048 68.6122L254.96 49.5785C254.426 48.4561 253.209 47.8282 251.985 48.044L222.235 53.5632C221.018 53.8003 220.103 54.8129 219.99 56.0483L218.074 76.9667C217.671 77.095 217.264 77.2078 216.863 77.3388C215.567 77.7821 214.793 79.1095 215.046 80.4555L216.888 90.6415V90.6718C216.888 90.6828 216.897 90.691 216.899 90.702L217.383 93.3897C217.414 93.5489 217.458 93.7053 217.514 93.8572C216.096 93.9761 215.004 95.16 215 96.5834V100.25C215 101.769 216.231 103 217.75 103H267.25C268.769 103 270 101.769 270 100.25V96.5834C270 95.0646 268.769 93.8334 267.25 93.8334ZM256.255 89.0878L257.045 93.4117C257.074 93.5554 257.114 93.6964 257.167 93.8334H230.314L256.255 89.0878ZM266.074 91.7809C266.16 92.2747 265.833 92.7459 265.341 92.8388L259.932 93.8187C259.692 93.8656 259.443 93.8145 259.241 93.6767C259.038 93.539 258.9 93.326 258.855 93.0854L258.066 88.7614L265.284 87.4405L266.074 91.7809ZM221.816 56.2124C221.849 55.7914 222.16 55.4444 222.574 55.3654L252.315 49.848C252.725 49.7733 253.133 49.9872 253.306 50.3668L262.074 68.7387C247.788 69.6319 233.656 72.1975 219.967 76.3828L221.816 56.2124ZM217.429 79.075C232.796 74.0788 248.762 71.1593 264.903 70.3942C265.355 70.3932 265.741 70.7221 265.811 71.1688L267.495 80.4784L223.486 88.5341C223.026 88.6249 222.709 89.0486 222.751 89.5159C222.793 89.9832 223.181 90.3432 223.651 90.35C223.706 90.3501 223.762 90.3452 223.816 90.3353L267.821 82.2833L268.15 84.1029C268.255 84.5876 267.949 85.0663 267.465 85.1745L220.202 93.8196C219.986 93.8555 219.764 93.8059 219.583 93.6812C219.376 93.5355 219.235 93.3132 219.192 93.0634L218.862 91.2392L220.204 90.9917C220.533 90.939 220.807 90.7124 220.92 90.3997C221.034 90.0869 220.969 89.7371 220.751 89.4857C220.533 89.2344 220.196 89.121 219.87 89.1895L218.533 89.4333L216.85 80.131C216.752 79.6837 216.999 79.2329 217.429 79.075ZM268.167 100.25C268.167 100.756 267.756 101.167 267.25 101.167H217.75C217.244 101.167 216.833 100.756 216.833 100.25V96.5834C216.833 96.0771 217.244 95.6667 217.75 95.6667H267.25C267.756 95.6667 268.167 96.0771 268.167 96.5834V100.25Z" fill="#1D1D1D"/>
</g>
<path d="M15.5 15.5H285C301.292 15.5 314.5 28.7076 314.5 45V134.5H45C28.7076 134.5 15.5 121.292 15.5 105V15.5Z" stroke="black" stroke-opacity="0.1"/>
</g>
<defs>
<filter id="filter0_d_19_100" x="0" y="0" width="330" height="150" filterUnits="userSpaceOnUse" color-interpolation-filters="sRGB">
<feFlood flood-opacity="0" result="BackgroundImageFix"/>
<feColorMatrix in="SourceAlpha" type="matrix" values="0 0 0 0 0 0 0 0 0 0 0 0 0 0 0 0 0 0 127 0" result="hardAlpha"/>
<feOffset/>
<feGaussianBlur stdDeviation="7.5"/>
<feColorMatrix type="matrix" values="0 0 0 0 0 0 0 0 0 0 0 0 0 0 0 0 0 0 0.1 0"/>
<feBlend mode="normal" in2="BackgroundImageFix" result="effect1_dropShadow_19_100"/>
<feBlend mode="normal" in="SourceGraphic" in2="effect1_dropShadow_19_100" result="shape"/>
</filter>
<clipPath id="clip0_19_100">
<rect width="55" height="55" fill="white" transform="translate(215 48)"/>
</clipPath>
</defs>
</svg>
