<svg width="330" height="150" viewBox="0 0 330 150" fill="none" xmlns="http://www.w3.org/2000/svg">
<g filter="url(#filter0_d_19_753)">
<path d="M15 15H285C301.569 15 315 28.4315 315 45V135H45C28.4315 135 15 121.569 15 105V15Z" fill="white"/>
<path d="M232.003 75.5413L211.699 48.8512C211.048 47.9946 209.853 47.7716 208.936 48.3354C208.007 48.9065 207.672 50.0947 208.166 51.0668L223.309 80.9026H232.003V75.5413Z" fill="#07359B"/>
<path d="M211.699 48.8512C211.048 47.9946 209.853 47.7716 208.936 48.3354C208.569 48.5614 208.296 48.8846 208.129 49.2521L228.128 75.5415V80.9027H232.003V75.5415L211.699 48.8512Z" fill="#07359B"/>
<path d="M235.017 86.5064H223.309V74.8814C223.309 72.0828 225.578 69.8141 228.376 69.8141H235.017V86.5064Z" fill="#1D1D1D"/>
<path d="M239.369 86.5065V60.8717C239.369 59.8181 240.223 58.9641 241.276 58.9641H258.25C258.976 58.9641 259.64 59.3763 259.961 60.0274L266.854 73.9922C267.072 74.4353 267.186 74.9228 267.186 75.4171V86.5066H239.369V86.5065Z" fill="#07359B"/>
<path d="M201.846 92.5873H268.154C268.607 92.5873 268.975 92.2201 268.975 91.767V87.3268C268.975 86.8737 268.607 86.5065 268.154 86.5065H201.846C201.393 86.5065 201.025 86.8737 201.025 87.3268V91.767C201.025 92.2201 201.393 92.5873 201.846 92.5873Z" fill="#9C9C9C"/>
<path d="M239.369 86.5064H235.017V68.1511C235.017 67.6244 235.444 67.1973 235.971 67.1973H239.369V86.5064H239.369Z" fill="#1D1D1D"/>
<path d="M253.277 102.032C257.565 102.032 261.04 98.5567 261.04 94.2693C261.04 89.982 257.565 86.5065 253.277 86.5065C248.99 86.5065 245.514 89.982 245.514 94.2693C245.514 98.5567 248.99 102.032 253.277 102.032Z" fill="#5A5A5A"/>
<path d="M256.482 94.7859C256.77 93.0083 255.562 91.3337 253.785 91.0455C252.007 90.7574 250.332 91.9648 250.044 93.7424C249.756 95.52 250.964 97.1946 252.741 97.4828C254.519 97.7709 256.193 96.5635 256.482 94.7859Z" fill="#BFBFBF"/>
<path d="M215.701 102.032C219.989 102.032 223.464 98.5567 223.464 94.2693C223.464 89.982 219.989 86.5065 215.701 86.5065C211.414 86.5065 207.939 89.982 207.939 94.2693C207.939 98.5567 211.414 102.032 215.701 102.032Z" fill="#5A5A5A"/>
<path d="M218.913 94.7826C219.201 93.005 217.993 91.3304 216.216 91.0422C214.438 90.7541 212.763 91.9615 212.475 93.7391C212.187 95.5167 213.395 97.1913 215.172 97.4795C216.95 97.7677 218.624 96.5602 218.913 94.7826Z" fill="#BFBFBF"/>
<path d="M266.854 73.9922L259.961 60.0274C259.64 59.3763 258.976 58.9641 258.25 58.9641H253.6C254.326 58.9641 254.989 59.3763 255.31 60.0274L262.203 73.9922C262.422 74.4353 262.536 74.9228 262.536 75.4171V86.5064H267.186V75.4171C267.186 74.9228 267.072 74.4353 266.854 73.9922Z" fill="#07359B"/>
<path d="M268.154 86.5065H263.504C263.957 86.5065 264.324 86.8738 264.324 87.3268V91.767C264.324 92.2201 263.957 92.5873 263.504 92.5873H268.154C268.607 92.5873 268.975 92.2201 268.975 91.767V87.3268C268.975 86.8738 268.607 86.5065 268.154 86.5065Z" fill="#1D1D1D"/>
<path d="M261.471 72.492L257.116 63.6688C256.955 63.3433 256.624 63.1371 256.261 63.1371H244.507C243.98 63.1371 243.553 63.5642 243.553 64.091V72.9141C243.553 73.4409 243.98 73.868 244.507 73.868H260.616C261.323 73.868 261.784 73.1259 261.471 72.492Z" fill="#A8C3FF"/>
<path d="M267.186 81.295H262.667C262.139 81.295 261.71 80.8665 261.71 80.338V78.8341C261.71 78.3055 262.139 77.877 262.667 77.877H267.186V81.295Z" fill="#FEC165"/>
<path d="M262.536 77.8871V81.2849C262.579 81.2908 262.623 81.295 262.667 81.295H267.186V77.877H262.667C262.623 77.877 262.579 77.8811 262.536 77.8871Z" fill="#FDB441"/>
<path d="M231.141 69.8142H235.017V86.5066H231.141V69.8142Z" fill="#5A5A5A"/>
<path d="M229.509 78.0355C230.887 78.0355 232.003 76.9188 232.003 75.5413C232.003 74.1638 230.887 73.0472 229.509 73.0472C228.132 73.0472 227.015 74.1638 227.015 75.5413C227.015 76.9188 228.132 78.0355 229.509 78.0355Z" fill="#07359B"/>
<path d="M253.277 86.5065C252.608 86.5065 251.959 86.5912 251.34 86.7504C254.689 87.611 257.165 90.6511 257.165 94.2693C257.165 97.8876 254.689 100.928 251.34 101.788C251.959 101.947 252.608 102.032 253.277 102.032C257.565 102.032 261.04 98.5567 261.04 94.2693C261.04 89.982 257.565 86.5065 253.277 86.5065Z" fill="#1D1D1D"/>
<path d="M215.701 86.5065C215.032 86.5065 214.383 86.5912 213.764 86.7504C217.113 87.611 219.589 90.6511 219.589 94.2693C219.589 97.8876 217.113 100.928 213.764 101.788C214.383 101.947 215.032 102.032 215.701 102.032C219.989 102.032 223.464 98.5567 223.464 94.2693C223.464 89.982 219.989 86.5065 215.701 86.5065Z" fill="#1D1D1D"/>
<path d="M261.471 72.492L257.116 63.6688C256.955 63.3433 256.624 63.1371 256.261 63.1371H252.385C252.748 63.1371 253.08 63.3432 253.24 63.6688L257.595 72.492C257.908 73.1259 257.447 73.868 256.74 73.868H260.615C261.323 73.868 261.784 73.1259 261.471 72.492Z" fill="#77A1FF"/>
<path d="M229.509 72.0218C227.568 72.0218 225.99 73.6007 225.99 75.5413C225.99 77.4819 227.568 79.0609 229.509 79.0609C231.45 79.0609 233.029 77.4819 233.029 75.5413C233.029 73.6007 231.45 72.0218 229.509 72.0218ZM229.509 77.0101C228.699 77.0101 228.04 76.3513 228.04 75.5413C228.04 74.7314 228.699 74.0726 229.509 74.0726C230.319 74.0726 230.978 74.7314 230.978 75.5413C230.978 76.3513 230.319 77.0101 229.509 77.0101Z" fill="#1D1D1D"/>
<path d="M253.278 89.9829C250.914 89.9829 248.991 91.9057 248.991 94.2693C248.991 96.6329 250.914 98.5557 253.278 98.5557C255.641 98.5557 257.564 96.6329 257.564 94.2693C257.564 91.9057 255.641 89.9829 253.278 89.9829ZM253.278 96.5048C252.045 96.5048 251.042 95.502 251.042 94.2692C251.042 93.0364 252.045 92.0336 253.278 92.0336C254.51 92.0336 255.513 93.0364 255.513 94.2692C255.513 95.502 254.51 96.5048 253.278 96.5048Z" fill="#1D1D1D"/>
<path d="M215.701 89.9829C213.338 89.9829 211.415 91.9057 211.415 94.2693C211.415 96.6329 213.338 98.5557 215.701 98.5557C218.065 98.5557 219.988 96.6329 219.988 94.2693C219.988 91.9057 218.065 89.9829 215.701 89.9829ZM215.701 96.5048C214.469 96.5048 213.466 95.502 213.466 94.2692C213.466 93.0364 214.469 92.0336 215.701 92.0336C216.934 92.0336 217.937 93.0364 217.937 94.2692C217.937 95.502 216.934 96.5048 215.701 96.5048Z" fill="#1D1D1D"/>
<path d="M268.212 85.4841C268.212 83.3893 268.212 77.4248 268.212 75.417C268.212 74.7689 268.06 74.1192 267.773 73.5384L264.021 65.9363C263.77 65.4285 263.156 65.22 262.648 65.4706C262.14 65.7212 261.931 66.3362 262.182 66.844L265.934 74.4462C266.082 74.7463 266.161 75.082 266.161 75.417V76.8516H262.667C261.574 76.8516 260.685 77.741 260.685 78.8341V80.338C260.685 81.431 261.574 82.3204 262.667 82.3204H266.161V85.481H240.394C240.394 85.0944 240.394 61.5916 240.394 60.8717C240.394 60.3851 240.79 59.9894 241.276 59.9894H258.25C258.589 59.9894 258.892 60.1778 259.041 60.4812L260.064 62.5529C260.315 63.0607 260.93 63.2692 261.437 63.0186C261.945 62.7678 262.154 62.153 261.903 61.6452L260.88 59.5734C260.383 58.5651 259.375 57.9387 258.25 57.9387H241.276C239.659 57.9387 238.343 59.2544 238.343 60.8717V66.1719H235.971C234.879 66.1719 233.991 67.0597 233.991 68.1511V68.7888C227.812 68.7888 228.383 68.7865 228.159 68.7943L223.379 62.5112C223.036 62.0604 222.393 61.9731 221.942 62.316C221.492 62.6589 221.404 63.3021 221.747 63.7529L225.959 69.29C223.768 70.2406 222.284 72.421 222.284 74.8815V76.6166L209.08 50.6026C208.833 50.116 208.988 49.5069 209.473 49.2089C209.929 48.9286 210.541 49.0225 210.883 49.4722L218.85 59.9446C219.193 60.3954 219.836 60.4827 220.287 60.1398C220.737 59.7969 220.825 59.1537 220.482 58.7029L212.515 48.2305C211.566 46.9819 209.789 46.607 208.399 47.462C206.972 48.3398 206.537 50.1233 207.251 51.5311L209.128 55.2296V67.1722C209.128 68.0695 209.858 68.7995 210.756 68.7995H212.06C212.435 68.7995 212.74 69.1045 212.74 69.4796V69.8139C212.74 70.3734 212.285 70.8284 211.725 70.8284H210.154C209.588 70.8284 209.128 71.2873 209.128 71.8537C209.128 72.4202 209.588 72.8791 210.154 72.8791H211.726C213.416 72.8791 214.791 71.504 214.791 69.8139V69.4796C214.791 67.9738 213.566 66.7487 212.06 66.7487H211.179C211.179 65.8575 211.179 60.1926 211.179 59.2699L222.284 81.1479V85.4812C221.573 85.4812 202.862 85.4812 201.846 85.4812C200.828 85.4812 200 86.3092 200 87.3269V91.7671C200 92.7848 200.828 93.6128 201.846 93.6128H206.94C206.924 93.8299 206.913 94.0484 206.913 94.2695C206.913 99.1153 210.856 103.058 215.701 103.058C220.547 103.058 224.49 99.1153 224.49 94.2695C224.49 94.0484 224.479 93.8299 224.463 93.6128H244.516C244.134 98.7633 248.225 103.058 253.278 103.058C258.123 103.058 262.066 99.1153 262.066 94.2695C262.066 94.0484 262.055 93.8299 262.039 93.6128H268.154C269.172 93.6128 270 92.7848 270 91.7671V87.3269C270 86.3283 269.203 85.5147 268.212 85.4841ZM262.736 80.2696V78.9024H266.161V80.2696H262.736ZM236.042 69.8142V68.2226H238.343V85.481H236.042V69.8142ZM224.334 80.9034C224.334 80.9032 224.334 80.9029 224.334 80.9026C224.334 73.9256 224.334 74.9886 224.335 74.8495C224.352 72.6653 226.136 70.8396 228.376 70.8396H233.991V85.4812H224.334V80.9034H224.334ZM207.341 91.5619H202.051V87.5318H210.06C208.8 88.5885 207.847 90.0038 207.341 91.5619ZM215.701 101.007C211.986 101.007 208.964 97.9844 208.964 94.2693C208.964 90.4746 212.094 87.532 215.701 87.532C219.334 87.532 222.439 90.4996 222.439 94.2693C222.439 97.9843 219.417 101.007 215.701 101.007ZM244.917 91.5619H224.062C223.575 90.0621 222.648 88.6264 221.343 87.5318H247.636C246.368 88.5954 245.419 90.0141 244.917 91.5619ZM253.278 101.007C249.562 101.007 246.54 97.9844 246.54 94.2693C246.54 90.4826 249.663 87.532 253.278 87.532H253.278C256.907 87.532 260.015 90.4971 260.015 94.2693C260.015 97.9843 256.992 101.007 253.278 101.007ZM267.949 91.5619H261.638C261.138 90.0216 260.192 88.6003 258.919 87.5318H267.949V91.5619Z" fill="#1D1D1D"/>
<path d="M256.261 62.1119H244.507C243.416 62.1119 242.528 62.9997 242.528 64.0911V72.9143C242.528 74.0056 243.416 74.8936 244.507 74.8936H260.615C261.304 74.8936 261.933 74.5442 262.296 73.9592C262.66 73.3742 262.695 72.6562 262.39 72.0383L258.035 63.2153C257.7 62.5345 257.02 62.1119 256.261 62.1119ZM244.579 72.8426V64.1626H256.216L260.501 72.8426H244.579Z" fill="#1D1D1D"/>
<path d="M72.5979 74.336H76.1499V81.152C75.2379 81.84 74.1819 82.368 72.9819 82.736C71.7819 83.104 70.5739 83.288 69.3579 83.288C67.6139 83.288 66.0459 82.92 64.6539 82.184C63.2619 81.432 62.1659 80.4 61.3659 79.088C60.5819 77.76 60.1899 76.264 60.1899 74.6C60.1899 72.936 60.5819 71.448 61.3659 70.136C62.1659 68.808 63.2699 67.776 64.6779 67.04C66.0859 66.288 67.6699 65.912 69.4299 65.912C70.9019 65.912 72.2379 66.16 73.4379 66.656C74.6379 67.152 75.6459 67.872 76.4619 68.816L73.9659 71.12C72.7659 69.856 71.3179 69.224 69.6219 69.224C68.5499 69.224 67.5979 69.448 66.7659 69.896C65.9339 70.344 65.2859 70.976 64.8219 71.792C64.3579 72.608 64.1259 73.544 64.1259 74.6C64.1259 75.64 64.3579 76.568 64.8219 77.384C65.2859 78.2 65.9259 78.84 66.7419 79.304C67.5739 79.752 68.5179 79.976 69.5739 79.976C70.6939 79.976 71.7019 79.736 72.5979 79.256V74.336ZM92.5055 70.088V83H88.9535V81.464C88.4575 82.024 87.8655 82.456 87.1775 82.76C86.4895 83.048 85.7455 83.192 84.9455 83.192C83.2495 83.192 81.9055 82.704 80.9135 81.728C79.9215 80.752 79.4255 79.304 79.4255 77.384V70.088H83.1695V76.832C83.1695 78.912 84.0415 79.952 85.7855 79.952C86.6815 79.952 87.4015 79.664 87.9455 79.088C88.4895 78.496 88.7615 77.624 88.7615 76.472V70.088H92.5055ZM95.9741 70.088H99.7181V83H95.9741V70.088ZM97.8461 68.288C97.1581 68.288 96.5981 68.088 96.1661 67.688C95.7341 67.288 95.5181 66.792 95.5181 66.2C95.5181 65.608 95.7341 65.112 96.1661 64.712C96.5981 64.312 97.1581 64.112 97.8461 64.112C98.5341 64.112 99.0941 64.304 99.5261 64.688C99.9581 65.072 100.174 65.552 100.174 66.128C100.174 66.752 99.9581 67.272 99.5261 67.688C99.0941 68.088 98.5341 68.288 97.8461 68.288ZM111.041 69.896C112.641 69.896 113.929 70.376 114.905 71.336C115.897 72.296 116.393 73.72 116.393 75.608V83H112.649V76.184C112.649 75.16 112.425 74.4 111.977 73.904C111.529 73.392 110.881 73.136 110.033 73.136C109.089 73.136 108.337 73.432 107.777 74.024C107.217 74.6 106.937 75.464 106.937 76.616V83H103.193V70.088H106.769V71.6C107.265 71.056 107.881 70.64 108.617 70.352C109.353 70.048 110.161 69.896 111.041 69.896ZM126.167 83.192C124.791 83.192 123.551 82.912 122.447 82.352C121.359 81.776 120.503 80.984 119.879 79.976C119.271 78.968 118.967 77.824 118.967 76.544C118.967 75.264 119.271 74.12 119.879 73.112C120.503 72.104 121.359 71.32 122.447 70.76C123.551 70.184 124.791 69.896 126.167 69.896C127.527 69.896 128.711 70.184 129.719 70.76C130.743 71.32 131.487 72.128 131.951 73.184L129.047 74.744C128.375 73.56 127.407 72.968 126.143 72.968C125.167 72.968 124.359 73.288 123.719 73.928C123.079 74.568 122.759 75.44 122.759 76.544C122.759 77.648 123.079 78.52 123.719 79.16C124.359 79.8 125.167 80.12 126.143 80.12C127.423 80.12 128.391 79.528 129.047 78.344L131.951 79.928C131.487 80.952 130.743 81.752 129.719 82.328C128.711 82.904 127.527 83.192 126.167 83.192ZM141.861 69.896C143.461 69.896 144.749 70.376 145.725 71.336C146.717 72.296 147.213 73.72 147.213 75.608V83H143.469V76.184C143.469 75.16 143.245 74.4 142.797 73.904C142.349 73.392 141.701 73.136 140.853 73.136C139.909 73.136 139.157 73.432 138.597 74.024C138.037 74.6 137.757 75.464 137.757 76.616V83H134.013V65.192H137.757V71.432C138.253 70.936 138.853 70.56 139.557 70.304C140.261 70.032 141.029 69.896 141.861 69.896ZM156.892 83.192C155.532 83.192 154.308 82.912 153.22 82.352C152.148 81.776 151.308 80.984 150.7 79.976C150.092 78.968 149.788 77.824 149.788 76.544C149.788 75.264 150.092 74.12 150.7 73.112C151.308 72.104 152.148 71.32 153.22 70.76C154.308 70.184 155.532 69.896 156.892 69.896C158.252 69.896 159.468 70.184 160.54 70.76C161.612 71.32 162.452 72.104 163.06 73.112C163.668 74.12 163.972 75.264 163.972 76.544C163.972 77.824 163.668 78.968 163.06 79.976C162.452 80.984 161.612 81.776 160.54 82.352C159.468 82.912 158.252 83.192 156.892 83.192ZM156.892 80.12C157.852 80.12 158.636 79.8 159.244 79.16C159.868 78.504 160.18 77.632 160.18 76.544C160.18 75.456 159.868 74.592 159.244 73.952C158.636 73.296 157.852 72.968 156.892 72.968C155.932 72.968 155.14 73.296 154.516 73.952C153.892 74.592 153.58 75.456 153.58 76.544C153.58 77.632 153.892 78.504 154.516 79.16C155.14 79.8 155.932 80.12 156.892 80.12Z" fill="#07359B"/>
<path d="M15.5 15.5H285C301.292 15.5 314.5 28.7076 314.5 45V134.5H45C28.7076 134.5 15.5 121.292 15.5 105V15.5Z" stroke="black" stroke-opacity="0.1"/>
</g>
<defs>
<filter id="filter0_d_19_753" x="0" y="0" width="330" height="150" filterUnits="userSpaceOnUse" color-interpolation-filters="sRGB">
<feFlood flood-opacity="0" result="BackgroundImageFix"/>
<feColorMatrix in="SourceAlpha" type="matrix" values="0 0 0 0 0 0 0 0 0 0 0 0 0 0 0 0 0 0 127 0" result="hardAlpha"/>
<feOffset/>
<feGaussianBlur stdDeviation="7.5"/>
<feColorMatrix type="matrix" values="0 0 0 0 0 0 0 0 0 0 0 0 0 0 0 0 0 0 0.1 0"/>
<feBlend mode="normal" in2="BackgroundImageFix" result="effect1_dropShadow_19_753"/>
<feBlend mode="normal" in="SourceGraphic" in2="effect1_dropShadow_19_753" result="shape"/>
</filter>
</defs>
</svg>
